ply
format ascii 1.0
comment Created by Blender 2.69 (sub 0) - www.blender.org, source file: ''
element vertex 486
property float x
property float y
property float z
property float nx
property float ny
property float nz
property float s
property float t
element face 768
property list uchar uint vertex_indices
end_header
-0.500000 -0.500000 0.500000 -1.000000 -0.000000 0.000000 1.000000 1.000000
-0.500000 -0.375000 0.500000 -1.000000 -0.000000 0.000000 0.875000 1.000000
-0.500000 -0.500000 0.375000 -1.000000 -0.000000 0.000000 1.000000 0.875000
-0.500000 0.500000 0.500000 0.000000 1.000000 0.000000 1.000000 1.000000
-0.375000 0.500000 0.500000 0.000000 1.000000 0.000000 0.875000 1.000000
-0.500000 0.500000 0.375000 0.000000 1.000000 0.000000 1.000000 0.875000
0.500000 0.500000 0.500000 1.000000 0.000000 -0.000000 1.000000 1.000000
0.500000 0.375000 0.500000 1.000000 0.000000 -0.000000 0.875000 1.000000
0.500000 0.500000 0.375000 1.000000 0.000000 -0.000000 1.000000 0.875000
0.500000 -0.500000 0.500000 0.000000 -1.000000 0.000000 1.000000 1.000000
0.375000 -0.500000 0.500000 0.000000 -1.000000 0.000000 0.875000 1.000000
0.500000 -0.500000 0.375000 0.000000 -1.000000 0.000000 1.000000 0.875000
-0.500000 -0.500000 -0.500000 -0.000000 -0.000000 -1.000000 1.000000 1.000000
-0.500000 -0.375000 -0.500000 -0.000000 -0.000000 -1.000000 0.875000 1.000000
-0.375000 -0.500000 -0.500000 -0.000000 -0.000000 -1.000000 1.000000 0.875000
0.500000 0.500000 0.500000 0.000000 -0.000000 1.000000 0.000000 1.000000
0.375000 0.375000 0.500000 0.000000 -0.000000 1.000000 0.125000 0.875000
0.500000 0.375000 0.500000 0.000000 -0.000000 1.000000 0.125000 1.000000
-0.500000 0.500000 0.500000 -1.000000 0.000000 0.000000 0.000000 1.000000
-0.500000 0.500000 0.375000 -1.000000 0.000000 0.000000 0.000000 0.875000
-0.500000 0.375000 0.375000 -1.000000 0.000000 0.000000 0.125000 0.875000
0.500000 0.500000 0.500000 -0.000000 1.000000 0.000000 0.000000 1.000000
0.500000 0.500000 0.375000 -0.000000 1.000000 0.000000 0.000000 0.875000
0.375000 0.500000 0.375000 -0.000000 1.000000 0.000000 0.125000 0.875000
0.500000 -0.500000 0.500000 1.000000 0.000000 -0.000000 0.000000 1.000000
0.500000 -0.500000 0.375000 1.000000 0.000000 -0.000000 0.000000 0.875000
0.500000 -0.375000 0.375000 1.000000 0.000000 -0.000000 0.125000 0.875000
-0.500000 -0.500000 0.500000 0.000000 -1.000000 0.000000 0.000000 1.000000
-0.500000 -0.500000 0.375000 0.000000 -1.000000 0.000000 0.000000 0.875000
-0.375000 -0.500000 0.375000 0.000000 -1.000000 0.000000 0.125000 0.875000
-0.500000 0.500000 -0.500000 0.000000 0.000000 -1.000000 0.000000 1.000000
-0.375000 0.500000 -0.500000 0.000000 0.000000 -1.000000 0.000000 0.875000
-0.375000 0.375000 -0.500000 0.000000 0.000000 -1.000000 0.125000 0.875000
-0.500000 0.500000 0.500000 0.000000 -0.000000 1.000000 0.000000 0.000000
-0.500000 0.375000 0.500000 0.000000 -0.000000 1.000000 0.125000 0.000000
-0.375000 0.500000 0.500000 0.000000 -0.000000 1.000000 0.000000 0.125000
-0.500000 -0.500000 -0.000000 -1.000000 -0.000000 0.000000 1.000000 0.500000
-0.500000 -0.375000 -0.000000 -1.000000 -0.000000 0.000000 0.875000 0.500000
-0.500000 -0.500000 -0.125000 -1.000000 -0.000000 0.000000 1.000000 0.375000
-0.500000 -0.375000 0.125000 -1.000000 -0.000000 0.000000 0.875000 0.625000
-0.500000 -0.000000 0.500000 -1.000000 0.000000 0.000000 0.500000 1.000000
-0.500000 0.125000 0.500000 -1.000000 0.000000 0.000000 0.375000 1.000000
-0.500000 -0.000000 0.375000 -1.000000 0.000000 0.000000 0.500000 0.875000
-0.500000 0.500000 0.000000 0.000000 1.000000 -0.000000 1.000000 0.500000
-0.375000 0.500000 0.000000 0.000000 1.000000 -0.000000 0.875000 0.500000
-0.500000 0.500000 -0.125000 0.000000 1.000000 -0.000000 1.000000 0.375000
-0.375000 0.500000 0.125000 0.000000 1.000000 0.000000 0.875000 0.625000
0.000000 0.500000 0.500000 0.000000 1.000000 0.000000 0.500000 1.000000
0.125000 0.500000 0.500000 0.000000 1.000000 0.000000 0.375000 1.000000
0.000000 0.500000 0.375000 0.000000 1.000000 0.000000 0.500000 0.875000
0.500000 0.500000 0.000000 1.000000 0.000000 -0.000000 1.000000 0.500000
0.500000 0.375000 0.000000 1.000000 0.000000 -0.000000 0.875000 0.500000
0.500000 0.500000 -0.125000 1.000000 0.000000 -0.000000 1.000000 0.375000
0.500000 0.375000 0.125000 1.000000 -0.000000 -0.000000 0.875000 0.625000
0.500000 -0.000000 0.500000 1.000000 0.000000 -0.000000 0.500000 1.000000
0.500000 -0.125000 0.500000 1.000000 0.000000 -0.000000 0.375000 1.000000
0.500000 -0.000000 0.375000 1.000000 0.000000 -0.000000 0.500000 0.875000
0.500000 -0.500000 -0.000000 0.000000 -1.000000 -0.000000 1.000000 0.500000
0.375000 -0.500000 -0.000000 0.000000 -1.000000 -0.000000 0.875000 0.500000
0.500000 -0.500000 -0.125000 0.000000 -1.000000 -0.000000 1.000000 0.375000
0.375000 -0.500000 0.125000 0.000000 -1.000000 0.000000 0.875000 0.625000
0.000000 -0.500000 0.500000 0.000000 -1.000000 0.000000 0.500000 1.000000
-0.125000 -0.500000 0.500000 0.000000 -1.000000 0.000000 0.375000 1.000000
0.000000 -0.500000 0.375000 0.000000 -1.000000 0.000000 0.500000 0.875000
0.000000 -0.500000 -0.500000 -0.000000 -0.000000 -1.000000 1.000000 0.500000
0.000000 -0.375000 -0.500000 -0.000000 -0.000000 -1.000000 0.875000 0.500000
0.125000 -0.500000 -0.500000 -0.000000 -0.000000 -1.000000 1.000000 0.375000
-0.125000 -0.375000 -0.500000 -0.000000 -0.000000 -1.000000 0.875000 0.625000
-0.500000 0.000000 -0.500000 0.000000 0.000000 -1.000000 0.500000 1.000000
-0.500000 0.125000 -0.500000 0.000000 0.000000 -1.000000 0.375000 1.000000
-0.375000 0.000000 -0.500000 0.000000 0.000000 -1.000000 0.500000 0.875000
0.500000 -0.000000 0.500000 0.000000 -0.000000 1.000000 0.500000 1.000000
0.375000 -0.125000 0.500000 0.000000 -0.000000 1.000000 0.625000 0.875000
0.500000 -0.125000 0.500000 0.000000 -0.000000 1.000000 0.625000 1.000000
0.375000 -0.000000 0.500000 0.000000 -0.000000 1.000000 0.500000 0.875000
0.000000 -0.000000 0.500000 0.000000 -0.000000 1.000000 0.500000 0.500000
-0.125000 -0.125000 0.500000 0.000000 -0.000000 1.000000 0.625000 0.375000
0.000000 -0.125000 0.500000 0.000000 -0.000000 1.000000 0.625000 0.500000
-0.500000 0.000000 0.000000 -1.000000 0.000000 0.000000 0.500000 0.500000
-0.500000 0.000000 -0.125000 -1.000000 0.000000 0.000000 0.500000 0.375000
-0.500000 -0.125000 -0.125000 -1.000000 0.000000 0.000000 0.625000 0.375000
-0.500000 0.125000 0.000000 -1.000000 -0.000000 0.000000 0.375000 0.500000
-0.500000 0.500000 0.000000 -1.000000 0.000000 0.000000 0.000000 0.500000
-0.500000 0.500000 -0.125000 -1.000000 0.000000 0.000000 0.000000 0.375000
-0.500000 0.375000 -0.125000 -1.000000 0.000000 0.000000 0.125000 0.375000
0.000000 0.500000 0.000000 0.000000 1.000000 0.000000 0.500000 0.500000
0.000000 0.500000 -0.125000 0.000000 1.000000 0.000000 0.500000 0.375000
-0.125000 0.500000 -0.125000 0.000000 1.000000 0.000000 0.625000 0.375000
0.125000 0.500000 0.000000 0.000000 1.000000 -0.000000 0.375000 0.500000
0.500000 0.500000 0.000000 0.000000 1.000000 0.000000 0.000000 0.500000
0.500000 0.500000 -0.125000 0.000000 1.000000 0.000000 0.000000 0.375000
0.375000 0.500000 -0.125000 0.000000 1.000000 0.000000 0.125000 0.375000
0.500000 0.000000 0.000000 1.000000 0.000000 0.000000 0.500000 0.500000
0.500000 0.000000 -0.125000 1.000000 0.000000 0.000000 0.500000 0.375000
0.500000 0.125000 -0.125000 1.000000 0.000000 0.000000 0.625000 0.375000
0.500000 -0.125000 -0.000000 1.000000 0.000000 -0.000000 0.375000 0.500000
0.500000 -0.500000 -0.000000 1.000000 0.000000 0.000000 0.000000 0.500000
0.500000 -0.500000 -0.125000 1.000000 0.000000 0.000000 0.000000 0.375000
0.500000 -0.375000 -0.125000 1.000000 0.000000 0.000000 0.125000 0.375000
0.000000 -0.500000 -0.000000 -0.000000 -1.000000 -0.000000 0.500000 0.500000
0.000000 -0.500000 -0.125000 -0.000000 -1.000000 -0.000000 0.500000 0.375000
0.125000 -0.500000 -0.125000 -0.000000 -1.000000 -0.000000 0.625000 0.375000
-0.125000 -0.500000 -0.000000 0.000000 -1.000000 -0.000000 0.375000 0.500000
-0.500000 -0.500000 -0.000000 -0.000000 -1.000000 -0.000000 0.000000 0.500000
-0.500000 -0.500000 -0.125000 -0.000000 -1.000000 -0.000000 0.000000 0.375000
-0.375000 -0.500000 -0.125000 -0.000000 -1.000000 -0.000000 0.125000 0.375000
0.000000 0.000000 -0.500000 0.000000 0.000000 -1.000000 0.500000 0.500000
0.125000 0.000000 -0.500000 0.000000 0.000000 -1.000000 0.500000 0.375000
0.125000 -0.125000 -0.500000 0.000000 0.000000 -1.000000 0.625000 0.375000
0.000000 0.125000 -0.500000 0.000000 0.000000 -1.000000 0.375000 0.500000
0.000000 0.500000 -0.500000 0.000000 0.000000 -1.000000 0.000000 0.500000
0.125000 0.500000 -0.500000 0.000000 0.000000 -1.000000 0.000000 0.375000
0.125000 0.375000 -0.500000 0.000000 0.000000 -1.000000 0.125000 0.375000
0.000000 0.500000 0.500000 0.000000 -0.000000 1.000000 0.000000 0.500000
0.000000 0.375000 0.500000 0.000000 -0.000000 1.000000 0.125000 0.500000
0.125000 0.500000 0.500000 0.000000 -0.000000 1.000000 0.000000 0.625000
-0.125000 0.375000 0.500000 0.000000 -0.000000 1.000000 0.125000 0.375000
-0.500000 -0.000000 0.500000 0.000000 -0.000000 1.000000 0.500000 0.000000
-0.500000 -0.125000 0.500000 0.000000 -0.000000 1.000000 0.625000 0.000000
-0.375000 -0.000000 0.500000 0.000000 -0.000000 1.000000 0.500000 0.125000
-0.500000 -0.500000 0.250000 -1.000000 -0.000000 0.000000 1.000000 0.750000
-0.500000 -0.375000 0.250000 -1.000000 -0.000000 0.000000 0.875000 0.750000
-0.500000 -0.500000 0.125000 -1.000000 -0.000000 0.000000 1.000000 0.625000
-0.500000 -0.375000 0.375000 -1.000000 -0.000000 0.000000 0.875000 0.875000
-0.500000 -0.250000 0.500000 -1.000000 0.000000 0.000000 0.750000 1.000000
-0.500000 -0.125000 0.500000 -1.000000 0.000000 0.000000 0.625000 1.000000
-0.500000 -0.250000 0.375000 -1.000000 0.000000 0.000000 0.750000 0.875000
-0.500000 0.500000 0.250000 0.000000 1.000000 -0.000000 1.000000 0.750000
-0.375000 0.500000 0.250000 0.000000 1.000000 -0.000000 0.875000 0.750000
-0.500000 0.500000 0.125000 0.000000 1.000000 -0.000000 1.000000 0.625000
-0.375000 0.500000 0.375000 0.000000 1.000000 0.000000 0.875000 0.875000
-0.250000 0.500000 0.500000 0.000000 1.000000 0.000000 0.750000 1.000000
-0.125000 0.500000 0.500000 0.000000 1.000000 0.000000 0.625000 1.000000
-0.250000 0.500000 0.375000 0.000000 1.000000 0.000000 0.750000 0.875000
0.500000 0.500000 0.250000 1.000000 0.000000 -0.000000 1.000000 0.750000
0.500000 0.375000 0.250000 1.000000 0.000000 -0.000000 0.875000 0.750000
0.500000 0.500000 0.125000 1.000000 0.000000 -0.000000 1.000000 0.625000
0.500000 0.375000 0.375000 1.000000 -0.000000 -0.000000 0.875000 0.875000
0.500000 0.250000 0.500000 1.000000 0.000000 -0.000000 0.750000 1.000000
0.500000 0.125000 0.500000 1.000000 0.000000 -0.000000 0.625000 1.000000
0.500000 0.250000 0.375000 1.000000 0.000000 -0.000000 0.750000 0.875000
0.500000 -0.500000 0.250000 0.000000 -1.000000 -0.000000 1.000000 0.750000
0.375000 -0.500000 0.250000 0.000000 -1.000000 -0.000000 0.875000 0.750000
0.500000 -0.500000 0.125000 0.000000 -1.000000 -0.000000 1.000000 0.625000
0.375000 -0.500000 0.375000 0.000000 -1.000000 0.000000 0.875000 0.875000
0.250000 -0.500000 0.500000 0.000000 -1.000000 0.000000 0.750000 1.000000
0.125000 -0.500000 0.500000 0.000000 -1.000000 0.000000 0.625000 1.000000
0.250000 -0.500000 0.375000 0.000000 -1.000000 0.000000 0.750000 0.875000
-0.250000 -0.500000 -0.500000 -0.000000 -0.000000 -1.000000 1.000000 0.750000
-0.250000 -0.375000 -0.500000 -0.000000 -0.000000 -1.000000 0.875000 0.750000
-0.125000 -0.500000 -0.500000 -0.000000 -0.000000 -1.000000 1.000000 0.625000
-0.375000 -0.375000 -0.500000 -0.000000 -0.000000 -1.000000 0.875000 0.875000
-0.500000 -0.250000 -0.500000 0.000000 0.000000 -1.000000 0.750000 1.000000
-0.500000 -0.125000 -0.500000 0.000000 0.000000 -1.000000 0.625000 1.000000
-0.375000 -0.250000 -0.500000 0.000000 0.000000 -1.000000 0.750000 0.875000
0.500000 0.250000 0.500000 0.000000 -0.000000 1.000000 0.250000 1.000000
0.375000 0.125000 0.500000 0.000000 -0.000000 1.000000 0.375000 0.875000
0.500000 0.125000 0.500000 0.000000 -0.000000 1.000000 0.375000 1.000000
0.375000 0.250000 0.500000 0.000000 -0.000000 1.000000 0.250000 0.875000
0.250000 0.250000 0.500000 0.000000 -0.000000 1.000000 0.250000 0.750000
0.125000 0.125000 0.500000 0.000000 -0.000000 1.000000 0.375000 0.625000
0.250000 0.125000 0.500000 0.000000 -0.000000 1.000000 0.375000 0.750000
-0.500000 0.250000 0.250000 -1.000000 0.000000 0.000000 0.250000 0.750000
-0.500000 0.250000 0.125000 -1.000000 0.000000 0.000000 0.250000 0.625000
-0.500000 0.125000 0.125000 -1.000000 0.000000 0.000000 0.375000 0.625000
-0.500000 0.375000 0.250000 -1.000000 -0.000000 0.000000 0.125000 0.750000
-0.500000 0.500000 0.250000 -1.000000 0.000000 0.000000 0.000000 0.750000
-0.500000 0.500000 0.125000 -1.000000 0.000000 0.000000 0.000000 0.625000
-0.500000 0.375000 0.125000 -1.000000 0.000000 0.000000 0.125000 0.625000
0.250000 0.500000 0.250000 0.000000 1.000000 0.000000 0.250000 0.750000
0.250000 0.500000 0.125000 0.000000 1.000000 0.000000 0.250000 0.625000
0.125000 0.500000 0.125000 0.000000 1.000000 0.000000 0.375000 0.625000
0.375000 0.500000 0.250000 0.000000 1.000000 -0.000000 0.125000 0.750000
0.500000 0.500000 0.250000 0.000000 1.000000 0.000000 0.000000 0.750000
0.500000 0.500000 0.125000 0.000000 1.000000 0.000000 0.000000 0.625000
0.375000 0.500000 0.125000 0.000000 1.000000 0.000000 0.125000 0.625000
0.500000 -0.250000 0.250000 1.000000 0.000000 -0.000000 0.250000 0.750000
0.500000 -0.250000 0.125000 1.000000 0.000000 -0.000000 0.250000 0.625000
0.500000 -0.125000 0.125000 1.000000 0.000000 -0.000000 0.375000 0.625000
0.500000 -0.375000 0.250000 1.000000 0.000000 -0.000000 0.125000 0.750000
0.500000 -0.500000 0.250000 1.000000 0.000000 0.000000 0.000000 0.750000
0.500000 -0.500000 0.125000 1.000000 0.000000 0.000000 0.000000 0.625000
0.500000 -0.375000 0.125000 1.000000 0.000000 0.000000 0.125000 0.625000
-0.250000 -0.500000 0.250000 -0.000000 -1.000000 -0.000000 0.250000 0.750000
-0.250000 -0.500000 0.125000 -0.000000 -1.000000 -0.000000 0.250000 0.625000
-0.125000 -0.500000 0.125000 -0.000000 -1.000000 -0.000000 0.375000 0.625000
-0.375000 -0.500000 0.250000 0.000000 -1.000000 -0.000000 0.125000 0.750000
-0.500000 -0.500000 0.250000 -0.000000 -1.000000 -0.000000 0.000000 0.750000
-0.500000 -0.500000 0.125000 -0.000000 -1.000000 -0.000000 0.000000 0.625000
-0.375000 -0.500000 0.125000 -0.000000 -1.000000 -0.000000 0.125000 0.625000
-0.250000 0.250000 -0.500000 0.000000 0.000000 -1.000000 0.250000 0.750000
-0.125000 0.250000 -0.500000 0.000000 0.000000 -1.000000 0.250000 0.625000
-0.125000 0.125000 -0.500000 0.000000 0.000000 -1.000000 0.375000 0.625000
-0.250000 0.375000 -0.500000 0.000000 0.000000 -1.000000 0.125000 0.750000
-0.250000 0.500000 -0.500000 0.000000 0.000000 -1.000000 0.000000 0.750000
-0.125000 0.500000 -0.500000 0.000000 0.000000 -1.000000 0.000000 0.625000
-0.125000 0.375000 -0.500000 0.000000 0.000000 -1.000000 0.125000 0.625000
-0.250000 0.500000 0.500000 0.000000 -0.000000 1.000000 0.000000 0.250000
-0.250000 0.375000 0.500000 0.000000 -0.000000 1.000000 0.125000 0.250000
-0.125000 0.500000 0.500000 0.000000 -0.000000 1.000000 0.000000 0.375000
-0.375000 0.375000 0.500000 0.000000 -0.000000 1.000000 0.125000 0.125000
-0.500000 0.250000 0.500000 0.000000 -0.000000 1.000000 0.250000 0.000000
-0.500000 0.125000 0.500000 0.000000 -0.000000 1.000000 0.375000 0.000000
-0.375000 0.250000 0.500000 0.000000 -0.000000 1.000000 0.250000 0.125000
-0.500000 -0.500000 -0.250000 -1.000000 -0.000000 0.000000 1.000000 0.250000
-0.500000 -0.375000 -0.250000 -1.000000 -0.000000 0.000000 0.875000 0.250000
-0.500000 -0.500000 -0.375000 -1.000000 -0.000000 0.000000 1.000000 0.125000
-0.500000 -0.375000 -0.125000 -1.000000 -0.000000 0.000000 0.875000 0.375000
-0.500000 -0.250000 -0.000000 -1.000000 -0.000000 0.000000 0.750000 0.500000
-0.500000 -0.125000 -0.000000 -1.000000 -0.000000 0.000000 0.625000 0.500000
-0.500000 -0.250000 -0.125000 -1.000000 -0.000000 0.000000 0.750000 0.375000
-0.500000 -0.125000 0.125000 -1.000000 -0.000000 0.000000 0.625000 0.625000
-0.500000 -0.250000 0.125000 -1.000000 0.000000 -0.000000 0.750000 0.625000
-0.500000 -0.250000 0.250000 -1.000000 -0.000000 0.000000 0.750000 0.750000
-0.500000 -0.125000 0.375000 -1.000000 -0.000000 0.000000 0.625000 0.875000
-0.500000 -0.125000 0.250000 -1.000000 -0.000000 0.000000 0.625000 0.750000
-0.500000 -0.000000 0.250000 -1.000000 -0.000000 0.000000 0.500000 0.750000
-0.500000 0.125000 0.250000 -1.000000 -0.000000 0.000000 0.375000 0.750000
-0.500000 -0.000000 0.125000 -1.000000 -0.000000 0.000000 0.500000 0.625000
-0.500000 0.125000 0.375000 -1.000000 -0.000000 0.000000 0.375000 0.875000
-0.500000 0.250000 0.500000 -1.000000 0.000000 0.000000 0.250000 1.000000
-0.500000 0.375000 0.500000 -1.000000 0.000000 0.000000 0.125000 1.000000
-0.500000 0.250000 0.375000 -1.000000 0.000000 0.000000 0.250000 0.875000
-0.500000 0.500000 -0.250000 0.000000 1.000000 -0.000000 1.000000 0.250000
-0.375000 0.500000 -0.250000 0.000000 1.000000 -0.000000 0.875000 0.250000
-0.500000 0.500000 -0.375000 0.000000 1.000000 -0.000000 1.000000 0.125000
-0.375000 0.500000 -0.125000 0.000000 1.000000 0.000000 0.875000 0.375000
-0.250000 0.500000 0.000000 0.000000 1.000000 -0.000000 0.750000 0.500000
-0.125000 0.500000 0.000000 0.000000 1.000000 -0.000000 0.625000 0.500000
-0.250000 0.500000 -0.125000 0.000000 1.000000 -0.000000 0.750000 0.375000
-0.125000 0.500000 0.125000 0.000000 1.000000 0.000000 0.625000 0.625000
-0.250000 0.500000 0.125000 0.000000 1.000000 0.000000 0.750000 0.625000
-0.250000 0.500000 0.250000 0.000000 1.000000 0.000000 0.750000 0.750000
-0.125000 0.500000 0.375000 0.000000 1.000000 0.000000 0.625000 0.875000
-0.125000 0.500000 0.250000 0.000000 1.000000 0.000000 0.625000 0.750000
0.000000 0.500000 0.250000 0.000000 1.000000 -0.000000 0.500000 0.750000
0.125000 0.500000 0.250000 0.000000 1.000000 -0.000000 0.375000 0.750000
0.000000 0.500000 0.125000 0.000000 1.000000 -0.000000 0.500000 0.625000
0.125000 0.500000 0.375000 0.000000 1.000000 0.000000 0.375000 0.875000
0.250000 0.500000 0.500000 0.000000 1.000000 0.000000 0.250000 1.000000
0.375000 0.500000 0.500000 0.000000 1.000000 0.000000 0.125000 1.000000
0.250000 0.500000 0.375000 0.000000 1.000000 0.000000 0.250000 0.875000
0.500000 0.500000 -0.250000 1.000000 0.000000 -0.000000 1.000000 0.250000
0.500000 0.375000 -0.250000 1.000000 0.000000 -0.000000 0.875000 0.250000
0.500000 0.500000 -0.375000 1.000000 0.000000 -0.000000 1.000000 0.125000
0.500000 0.375000 -0.125000 1.000000 -0.000000 0.000000 0.875000 0.375000
0.500000 0.250000 0.000000 1.000000 0.000000 -0.000000 0.750000 0.500000
0.500000 0.125000 0.000000 1.000000 0.000000 -0.000000 0.625000 0.500000
0.500000 0.250000 -0.125000 1.000000 0.000000 -0.000000 0.750000 0.375000
0.500000 0.125000 0.125000 1.000000 -0.000000 -0.000000 0.625000 0.625000
0.500000 0.250000 0.125000 1.000000 -0.000000 0.000000 0.750000 0.625000
0.500000 0.250000 0.250000 1.000000 -0.000000 -0.000000 0.750000 0.750000
0.500000 0.125000 0.375000 1.000000 -0.000000 -0.000000 0.625000 0.875000
0.500000 0.125000 0.250000 1.000000 -0.000000 -0.000000 0.625000 0.750000
0.500000 -0.000000 0.250000 1.000000 0.000000 -0.000000 0.500000 0.750000
0.500000 -0.125000 0.250000 1.000000 0.000000 -0.000000 0.375000 0.750000
0.500000 -0.000000 0.125000 1.000000 0.000000 -0.000000 0.500000 0.625000
0.500000 -0.125000 0.375000 1.000000 -0.000000 -0.000000 0.375000 0.875000
0.500000 -0.250000 0.500000 1.000000 0.000000 -0.000000 0.250000 1.000000
0.500000 -0.375000 0.500000 1.000000 0.000000 -0.000000 0.125000 1.000000
0.500000 -0.250000 0.375000 1.000000 0.000000 -0.000000 0.250000 0.875000
0.500000 -0.500000 -0.250000 0.000000 -1.000000 -0.000000 1.000000 0.250000
0.375000 -0.500000 -0.250000 0.000000 -1.000000 -0.000000 0.875000 0.250000
0.500000 -0.500000 -0.375000 0.000000 -1.000000 -0.000000 1.000000 0.125000
0.375000 -0.500000 -0.125000 0.000000 -1.000000 0.000000 0.875000 0.375000
0.250000 -0.500000 -0.000000 0.000000 -1.000000 -0.000000 0.750000 0.500000
0.125000 -0.500000 -0.000000 0.000000 -1.000000 -0.000000 0.625000 0.500000
0.250000 -0.500000 -0.125000 0.000000 -1.000000 -0.000000 0.750000 0.375000
0.125000 -0.500000 0.125000 0.000000 -1.000000 0.000000 0.625000 0.625000
0.250000 -0.500000 0.125000 0.000000 -1.000000 0.000000 0.750000 0.625000
0.250000 -0.500000 0.250000 0.000000 -1.000000 0.000000 0.750000 0.750000
0.125000 -0.500000 0.375000 0.000000 -1.000000 0.000000 0.625000 0.875000
0.125000 -0.500000 0.250000 0.000000 -1.000000 0.000000 0.625000 0.750000
0.000000 -0.500000 0.250000 0.000000 -1.000000 -0.000000 0.500000 0.750000
-0.125000 -0.500000 0.250000 0.000000 -1.000000 -0.000000 0.375000 0.750000
0.000000 -0.500000 0.125000 0.000000 -1.000000 -0.000000 0.500000 0.625000
-0.125000 -0.500000 0.375000 0.000000 -1.000000 0.000000 0.375000 0.875000
-0.250000 -0.500000 0.500000 0.000000 -1.000000 0.000000 0.250000 1.000000
-0.375000 -0.500000 0.500000 0.000000 -1.000000 0.000000 0.125000 1.000000
-0.250000 -0.500000 0.375000 0.000000 -1.000000 0.000000 0.250000 0.875000
0.250000 -0.500000 -0.500000 -0.000000 -0.000000 -1.000000 1.000000 0.250000
0.250000 -0.375000 -0.500000 -0.000000 -0.000000 -1.000000 0.875000 0.250000
0.375000 -0.500000 -0.500000 -0.000000 -0.000000 -1.000000 1.000000 0.125000
0.125000 -0.375000 -0.500000 -0.000000 -0.000000 -1.000000 0.875000 0.375000
0.000000 -0.250000 -0.500000 0.000000 0.000000 -1.000000 0.750000 0.500000
0.000000 -0.125000 -0.500000 0.000000 0.000000 -1.000000 0.625000 0.500000
0.125000 -0.250000 -0.500000 0.000000 0.000000 -1.000000 0.750000 0.375000
-0.125000 -0.125000 -0.500000 0.000000 0.000000 -1.000000 0.625000 0.625000
-0.125000 -0.250000 -0.500000 0.000000 0.000000 -1.000000 0.750000 0.625000
-0.250000 -0.250000 -0.500000 0.000000 0.000000 -1.000000 0.750000 0.750000
-0.375000 -0.125000 -0.500000 0.000000 0.000000 -1.000000 0.625000 0.875000
-0.250000 -0.125000 -0.500000 0.000000 0.000000 -1.000000 0.625000 0.750000
-0.250000 0.000000 -0.500000 0.000000 0.000000 -1.000000 0.500000 0.750000
-0.250000 0.125000 -0.500000 0.000000 0.000000 -1.000000 0.375000 0.750000
-0.125000 0.000000 -0.500000 0.000000 0.000000 -1.000000 0.500000 0.625000
-0.375000 0.125000 -0.500000 0.000000 0.000000 -1.000000 0.375000 0.875000
-0.500000 0.250000 -0.500000 0.000000 0.000000 -1.000000 0.250000 1.000000
-0.500000 0.375000 -0.500000 0.000000 0.000000 -1.000000 0.125000 1.000000
-0.375000 0.250000 -0.500000 0.000000 0.000000 -1.000000 0.250000 0.875000
0.500000 -0.250000 0.500000 0.000000 -0.000000 1.000000 0.750000 1.000000
0.375000 -0.375000 0.500000 0.000000 -0.000000 1.000000 0.875000 0.875000
0.500000 -0.375000 0.500000 0.000000 -0.000000 1.000000 0.875000 1.000000
0.375000 -0.250000 0.500000 0.000000 -0.000000 1.000000 0.750000 0.875000
0.250000 -0.250000 0.500000 0.000000 -0.000000 1.000000 0.750000 0.750000
0.125000 -0.375000 0.500000 0.000000 -0.000000 1.000000 0.875000 0.625000
0.250000 -0.375000 0.500000 0.000000 -0.000000 1.000000 0.875000 0.750000
0.125000 -0.250000 0.500000 0.000000 -0.000000 1.000000 0.750000 0.625000
0.250000 -0.125000 0.500000 -0.000000 0.000000 1.000000 0.625000 0.750000
0.250000 -0.000000 0.500000 0.000000 -0.000000 1.000000 0.500000 0.750000
0.125000 -0.000000 0.500000 0.000000 -0.000000 1.000000 0.500000 0.625000
0.125000 -0.125000 0.500000 0.000000 -0.000000 1.000000 0.625000 0.625000
0.000000 -0.250000 0.500000 0.000000 -0.000000 1.000000 0.750000 0.500000
-0.125000 -0.375000 0.500000 0.000000 -0.000000 1.000000 0.875000 0.375000
0.000000 -0.375000 0.500000 0.000000 -0.000000 1.000000 0.875000 0.500000
-0.125000 -0.250000 0.500000 0.000000 -0.000000 1.000000 0.750000 0.375000
-0.250000 -0.250000 0.500000 0.000000 -0.000000 1.000000 0.750000 0.250000
-0.375000 -0.375000 0.500000 0.000000 -0.000000 1.000000 0.875000 0.125000
-0.250000 -0.375000 0.500000 0.000000 -0.000000 1.000000 0.875000 0.250000
-0.500000 -0.250000 -0.250000 -1.000000 0.000000 0.000000 0.750000 0.250000
-0.500000 -0.250000 -0.375000 -1.000000 0.000000 0.000000 0.750000 0.125000
-0.500000 -0.375000 -0.375000 -1.000000 0.000000 0.000000 0.875000 0.125000
-0.500000 -0.125000 -0.250000 -1.000000 0.000000 0.000000 0.625000 0.250000
-0.500000 0.000000 -0.250000 -1.000000 0.000000 0.000000 0.500000 0.250000
-0.500000 0.000000 -0.375000 -1.000000 0.000000 0.000000 0.500000 0.125000
-0.500000 -0.125000 -0.375000 -1.000000 0.000000 0.000000 0.625000 0.125000
-0.500000 0.125000 -0.250000 -1.000000 -0.000000 0.000000 0.375000 0.250000
-0.500000 0.125000 -0.125000 -1.000000 -0.000000 0.000000 0.375000 0.375000
-0.500000 0.250000 0.000000 -1.000000 -0.000000 0.000000 0.250000 0.500000
-0.500000 0.375000 0.000000 -1.000000 -0.000000 0.000000 0.125000 0.500000
-0.500000 0.250000 -0.125000 -1.000000 -0.000000 0.000000 0.250000 0.375000
-0.500000 0.250000 -0.250000 -1.000000 0.000000 0.000000 0.250000 0.250000
-0.500000 0.250000 -0.375000 -1.000000 0.000000 0.000000 0.250000 0.125000
-0.500000 0.125000 -0.375000 -1.000000 0.000000 0.000000 0.375000 0.125000
-0.500000 0.375000 -0.250000 -1.000000 -0.000000 0.000000 0.125000 0.250000
-0.500000 0.500000 -0.250000 -1.000000 0.000000 0.000000 0.000000 0.250000
-0.500000 0.500000 -0.375000 -1.000000 0.000000 0.000000 0.000000 0.125000
-0.500000 0.375000 -0.375000 -1.000000 0.000000 0.000000 0.125000 0.125000
-0.250000 0.500000 -0.250000 0.000000 1.000000 0.000000 0.750000 0.250000
-0.250000 0.500000 -0.375000 0.000000 1.000000 0.000000 0.750000 0.125000
-0.375000 0.500000 -0.375000 0.000000 1.000000 0.000000 0.875000 0.125000
-0.125000 0.500000 -0.250000 0.000000 1.000000 -0.000000 0.625000 0.250000
0.000000 0.500000 -0.250000 0.000000 1.000000 0.000000 0.500000 0.250000
0.000000 0.500000 -0.375000 0.000000 1.000000 0.000000 0.500000 0.125000
-0.125000 0.500000 -0.375000 0.000000 1.000000 0.000000 0.625000 0.125000
0.125000 0.500000 -0.250000 0.000000 1.000000 -0.000000 0.375000 0.250000
0.125000 0.500000 -0.125000 0.000000 1.000000 0.000000 0.375000 0.375000
0.250000 0.500000 0.000000 0.000000 1.000000 -0.000000 0.250000 0.500000
0.375000 0.500000 0.000000 0.000000 1.000000 -0.000000 0.125000 0.500000
0.250000 0.500000 -0.125000 0.000000 1.000000 -0.000000 0.250000 0.375000
0.250000 0.500000 -0.250000 0.000000 1.000000 0.000000 0.250000 0.250000
0.250000 0.500000 -0.375000 0.000000 1.000000 0.000000 0.250000 0.125000
0.125000 0.500000 -0.375000 0.000000 1.000000 0.000000 0.375000 0.125000
0.375000 0.500000 -0.250000 0.000000 1.000000 -0.000000 0.125000 0.250000
0.500000 0.500000 -0.250000 0.000000 1.000000 0.000000 0.000000 0.250000
0.500000 0.500000 -0.375000 0.000000 1.000000 0.000000 0.000000 0.125000
0.375000 0.500000 -0.375000 0.000000 1.000000 0.000000 0.125000 0.125000
0.500000 0.250000 -0.250000 1.000000 0.000000 0.000000 0.750000 0.250000
0.500000 0.250000 -0.375000 1.000000 0.000000 0.000000 0.750000 0.125000
0.500000 0.375000 -0.375000 1.000000 0.000000 0.000000 0.875000 0.125000
0.500000 0.125000 -0.250000 1.000000 0.000000 -0.000000 0.625000 0.250000
0.500000 0.000000 -0.250000 1.000000 0.000000 0.000000 0.500000 0.250000
0.500000 0.000000 -0.375000 1.000000 0.000000 0.000000 0.500000 0.125000
0.500000 0.125000 -0.375000 1.000000 0.000000 0.000000 0.625000 0.125000
0.500000 -0.125000 -0.250000 1.000000 0.000000 -0.000000 0.375000 0.250000
0.500000 -0.125000 -0.125000 1.000000 -0.000000 -0.000000 0.375000 0.375000
0.500000 -0.250000 -0.000000 1.000000 0.000000 -0.000000 0.250000 0.500000
0.500000 -0.375000 -0.000000 1.000000 0.000000 -0.000000 0.125000 0.500000
0.500000 -0.250000 -0.125000 1.000000 0.000000 -0.000000 0.250000 0.375000
0.500000 -0.250000 -0.250000 1.000000 0.000000 0.000000 0.250000 0.250000
0.500000 -0.250000 -0.375000 1.000000 0.000000 0.000000 0.250000 0.125000
0.500000 -0.125000 -0.375000 1.000000 0.000000 0.000000 0.375000 0.125000
0.500000 -0.375000 -0.250000 1.000000 0.000000 -0.000000 0.125000 0.250000
0.500000 -0.500000 -0.250000 1.000000 0.000000 0.000000 0.000000 0.250000
0.500000 -0.500000 -0.375000 1.000000 0.000000 0.000000 0.000000 0.125000
0.500000 -0.375000 -0.375000 1.000000 0.000000 0.000000 0.125000 0.125000
0.250000 -0.500000 -0.250000 -0.000000 -1.000000 -0.000000 0.750000 0.250000
0.250000 -0.500000 -0.375000 -0.000000 -1.000000 -0.000000 0.750000 0.125000
0.375000 -0.500000 -0.375000 -0.000000 -1.000000 -0.000000 0.875000 0.125000
0.125000 -0.500000 -0.250000 0.000000 -1.000000 -0.000000 0.625000 0.250000
0.000000 -0.500000 -0.250000 -0.000000 -1.000000 -0.000000 0.500000 0.250000
0.000000 -0.500000 -0.375000 -0.000000 -1.000000 -0.000000 0.500000 0.125000
0.125000 -0.500000 -0.375000 -0.000000 -1.000000 -0.000000 0.625000 0.125000
-0.125000 -0.500000 -0.250000 0.000000 -1.000000 -0.000000 0.375000 0.250000
-0.125000 -0.500000 -0.125000 0.000000 -1.000000 0.000000 0.375000 0.375000
-0.250000 -0.500000 -0.000000 0.000000 -1.000000 -0.000000 0.250000 0.500000
-0.375000 -0.500000 -0.000000 0.000000 -1.000000 -0.000000 0.125000 0.500000
-0.250000 -0.500000 -0.125000 0.000000 -1.000000 -0.000000 0.250000 0.375000
-0.250000 -0.500000 -0.250000 -0.000000 -1.000000 -0.000000 0.250000 0.250000
-0.250000 -0.500000 -0.375000 -0.000000 -1.000000 -0.000000 0.250000 0.125000
-0.125000 -0.500000 -0.375000 -0.000000 -1.000000 -0.000000 0.375000 0.125000
-0.375000 -0.500000 -0.250000 0.000000 -1.000000 -0.000000 0.125000 0.250000
-0.500000 -0.500000 -0.250000 -0.000000 -1.000000 -0.000000 0.000000 0.250000
-0.500000 -0.500000 -0.375000 -0.000000 -1.000000 -0.000000 0.000000 0.125000
-0.375000 -0.500000 -0.375000 -0.000000 -1.000000 -0.000000 0.125000 0.125000
0.250000 -0.250000 -0.500000 0.000000 0.000000 -1.000000 0.750000 0.250000
0.375000 -0.250000 -0.500000 0.000000 0.000000 -1.000000 0.750000 0.125000
0.375000 -0.375000 -0.500000 0.000000 0.000000 -1.000000 0.875000 0.125000
0.250000 -0.125000 -0.500000 0.000000 0.000000 -1.000000 0.625000 0.250000
0.250000 0.000000 -0.500000 0.000000 0.000000 -1.000000 0.500000 0.250000
0.375000 0.000000 -0.500000 0.000000 0.000000 -1.000000 0.500000 0.125000
0.375000 -0.125000 -0.500000 0.000000 0.000000 -1.000000 0.625000 0.125000
0.250000 0.125000 -0.500000 0.000000 0.000000 -1.000000 0.375000 0.250000
0.125000 0.125000 -0.500000 0.000000 0.000000 -1.000000 0.375000 0.375000
0.000000 0.250000 -0.500000 0.000000 0.000000 -1.000000 0.250000 0.500000
0.000000 0.375000 -0.500000 0.000000 0.000000 -1.000000 0.125000 0.500000
0.125000 0.250000 -0.500000 0.000000 0.000000 -1.000000 0.250000 0.375000
0.250000 0.250000 -0.500000 0.000000 0.000000 -1.000000 0.250000 0.250000
0.375000 0.250000 -0.500000 0.000000 0.000000 -1.000000 0.250000 0.125000
0.375000 0.125000 -0.500000 0.000000 0.000000 -1.000000 0.375000 0.125000
0.250000 0.375000 -0.500000 0.000000 0.000000 -1.000000 0.125000 0.250000
0.250000 0.500000 -0.500000 0.000000 0.000000 -1.000000 0.000000 0.250000
0.375000 0.500000 -0.500000 0.000000 0.000000 -1.000000 0.000000 0.125000
0.375000 0.375000 -0.500000 0.000000 0.000000 -1.000000 0.125000 0.125000
0.250000 0.500000 0.500000 0.000000 -0.000000 1.000000 0.000000 0.750000
0.250000 0.375000 0.500000 0.000000 -0.000000 1.000000 0.125000 0.750000
0.375000 0.500000 0.500000 0.000000 -0.000000 1.000000 0.000000 0.875000
0.125000 0.375000 0.500000 0.000000 -0.000000 1.000000 0.125000 0.625000
0.000000 0.250000 0.500000 0.000000 -0.000000 1.000000 0.250000 0.500000
0.000000 0.125000 0.500000 0.000000 -0.000000 1.000000 0.375000 0.500000
0.125000 0.250000 0.500000 0.000000 -0.000000 1.000000 0.250000 0.625000
-0.125000 0.125000 0.500000 0.000000 -0.000000 1.000000 0.375000 0.375000
-0.125000 0.250000 0.500000 0.000000 -0.000000 1.000000 0.250000 0.375000
-0.250000 0.250000 0.500000 0.000000 -0.000000 1.000000 0.250000 0.250000
-0.375000 0.125000 0.500000 0.000000 -0.000000 1.000000 0.375000 0.125000
-0.250000 0.125000 0.500000 0.000000 -0.000000 1.000000 0.375000 0.250000
-0.250000 -0.000000 0.500000 0.000000 -0.000000 1.000000 0.500000 0.250000
-0.250000 -0.125000 0.500000 0.000000 -0.000000 1.000000 0.625000 0.250000
-0.125000 -0.000000 0.500000 0.000000 -0.000000 1.000000 0.500000 0.375000
-0.375000 -0.125000 0.500000 0.000000 -0.000000 1.000000 0.625000 0.125000
-0.500000 -0.250000 0.500000 0.000000 -0.000000 1.000000 0.750000 0.000000
-0.500000 -0.375000 0.500000 0.000000 -0.000000 1.000000 0.875000 0.000000
-0.375000 -0.250000 0.500000 0.000000 -0.000000 1.000000 0.750000 0.125000
-0.500000 -0.500000 -0.500000 -1.000000 -0.000000 0.000000 1.000000 0.000000
-0.500000 0.500000 -0.500000 0.000000 1.000000 -0.000000 1.000000 0.000000
0.500000 0.500000 -0.500000 1.000000 0.000000 -0.000000 1.000000 0.000000
0.500000 -0.500000 -0.500000 0.000000 -1.000000 -0.000000 1.000000 0.000000
0.500000 -0.500000 -0.500000 -0.000000 -0.000000 -1.000000 1.000000 0.000000
0.375000 -0.500000 0.500000 0.000000 -0.000000 1.000000 1.000000 0.875000
0.500000 -0.500000 0.500000 0.000000 -0.000000 1.000000 1.000000 1.000000
0.250000 -0.500000 0.500000 0.000000 -0.000000 1.000000 1.000000 0.750000
0.125000 -0.500000 0.500000 0.000000 -0.000000 1.000000 1.000000 0.625000
0.000000 -0.500000 0.500000 0.000000 -0.000000 1.000000 1.000000 0.500000
-0.125000 -0.500000 0.500000 0.000000 -0.000000 1.000000 1.000000 0.375000
-0.250000 -0.500000 0.500000 0.000000 -0.000000 1.000000 1.000000 0.250000
-0.375000 -0.500000 0.500000 0.000000 -0.000000 1.000000 1.000000 0.125000
-0.500000 -0.500000 0.500000 0.000000 -0.000000 1.000000 1.000000 0.000000
-0.500000 -0.375000 -0.500000 -1.000000 0.000000 0.000000 0.875000 0.000000
-0.500000 -0.250000 -0.500000 -1.000000 0.000000 0.000000 0.750000 0.000000
-0.500000 -0.125000 -0.500000 -1.000000 0.000000 0.000000 0.625000 0.000000
-0.500000 0.000000 -0.500000 -1.000000 0.000000 0.000000 0.500000 0.000000
-0.500000 0.125000 -0.500000 -1.000000 0.000000 0.000000 0.375000 0.000000
-0.500000 0.250000 -0.500000 -1.000000 0.000000 0.000000 0.250000 0.000000
-0.500000 0.375000 -0.500000 -1.000000 0.000000 0.000000 0.125000 0.000000
-0.500000 0.500000 -0.500000 -1.000000 0.000000 0.000000 0.000000 0.000000
-0.375000 0.500000 -0.500000 0.000000 1.000000 0.000000 0.875000 0.000000
-0.250000 0.500000 -0.500000 0.000000 1.000000 0.000000 0.750000 0.000000
-0.125000 0.500000 -0.500000 0.000000 1.000000 0.000000 0.625000 0.000000
0.000000 0.500000 -0.500000 0.000000 1.000000 0.000000 0.500000 0.000000
0.125000 0.500000 -0.500000 0.000000 1.000000 0.000000 0.375000 0.000000
0.250000 0.500000 -0.500000 0.000000 1.000000 0.000000 0.250000 0.000000
0.375000 0.500000 -0.500000 0.000000 1.000000 0.000000 0.125000 0.000000
0.500000 0.500000 -0.500000 0.000000 1.000000 0.000000 0.000000 0.000000
0.500000 0.375000 -0.500000 1.000000 0.000000 0.000000 0.875000 0.000000
0.500000 0.250000 -0.500000 1.000000 0.000000 0.000000 0.750000 0.000000
0.500000 0.125000 -0.500000 1.000000 0.000000 0.000000 0.625000 0.000000
0.500000 0.000000 -0.500000 1.000000 0.000000 0.000000 0.500000 0.000000
0.500000 -0.125000 -0.500000 1.000000 0.000000 0.000000 0.375000 0.000000
0.500000 -0.250000 -0.500000 1.000000 0.000000 0.000000 0.250000 0.000000
0.500000 -0.375000 -0.500000 1.000000 0.000000 0.000000 0.125000 0.000000
0.500000 -0.500000 -0.500000 1.000000 0.000000 0.000000 0.000000 0.000000
0.375000 -0.500000 -0.500000 -0.000000 -1.000000 -0.000000 0.875000 0.000000
0.250000 -0.500000 -0.500000 -0.000000 -1.000000 -0.000000 0.750000 0.000000
0.125000 -0.500000 -0.500000 -0.000000 -1.000000 -0.000000 0.625000 0.000000
0.000000 -0.500000 -0.500000 -0.000000 -1.000000 -0.000000 0.500000 0.000000
-0.125000 -0.500000 -0.500000 -0.000000 -1.000000 -0.000000 0.375000 0.000000
-0.250000 -0.500000 -0.500000 -0.000000 -1.000000 -0.000000 0.250000 0.000000
-0.375000 -0.500000 -0.500000 -0.000000 -1.000000 -0.000000 0.125000 0.000000
-0.500000 -0.500000 -0.500000 -0.000000 -1.000000 -0.000000 0.000000 0.000000
0.500000 -0.375000 -0.500000 0.000000 0.000000 -1.000000 0.875000 0.000000
0.500000 -0.250000 -0.500000 0.000000 0.000000 -1.000000 0.750000 0.000000
0.500000 -0.125000 -0.500000 0.000000 0.000000 -1.000000 0.625000 0.000000
0.500000 0.000000 -0.500000 0.000000 0.000000 -1.000000 0.500000 0.000000
0.500000 0.125000 -0.500000 0.000000 0.000000 -1.000000 0.375000 0.000000
0.500000 0.250000 -0.500000 0.000000 0.000000 -1.000000 0.250000 0.000000
0.500000 0.375000 -0.500000 0.000000 0.000000 -1.000000 0.125000 0.000000
0.500000 0.500000 -0.500000 0.000000 0.000000 -1.000000 0.000000 0.000000
3 0 1 2
3 3 4 5
3 6 7 8
3 9 10 11
3 12 13 14
3 15 16 17
3 18 19 20
3 21 22 23
3 24 25 26
3 27 28 29
3 30 31 32
3 33 34 35
3 36 37 38
3 36 39 37
3 40 41 42
3 43 44 45
3 43 46 44
3 47 48 49
3 50 51 52
3 50 53 51
3 54 55 56
3 57 58 59
3 57 60 58
3 61 62 63
3 64 65 66
3 64 67 65
3 68 69 70
3 71 72 73
3 71 74 72
3 75 76 77
3 78 79 80
3 78 81 79
3 82 83 84
3 85 86 87
3 85 88 86
3 89 90 91
3 92 93 94
3 92 95 93
3 96 97 98
3 99 100 101
3 99 102 100
3 103 104 105
3 106 107 108
3 106 109 107
3 110 111 112
3 113 114 115
3 113 116 114
3 117 118 119
3 120 121 122
3 120 123 121
3 124 125 126
3 127 128 129
3 127 130 128
3 131 132 133
3 134 135 136
3 134 137 135
3 138 139 140
3 141 142 143
3 141 144 142
3 145 146 147
3 148 149 150
3 148 151 149
3 152 153 154
3 155 156 157
3 155 158 156
3 159 160 161
3 162 163 164
3 162 165 163
3 166 167 168
3 169 170 171
3 169 172 170
3 173 174 175
3 176 177 178
3 176 179 177
3 180 181 182
3 183 184 185
3 183 186 184
3 187 188 189
3 190 191 192
3 190 193 191
3 194 195 196
3 197 198 199
3 197 200 198
3 201 202 203
3 204 205 206
3 204 207 205
3 208 209 210
3 208 211 209
3 208 212 211
3 213 214 215
3 216 217 218
3 216 219 217
3 220 221 222
3 223 224 225
3 223 226 224
3 227 228 229
3 227 230 228
3 227 231 230
3 232 233 234
3 235 236 237
3 235 238 236
3 239 240 241
3 242 243 244
3 242 245 243
3 246 247 248
3 246 249 247
3 246 250 249
3 251 252 253
3 254 255 256
3 254 257 255
3 258 259 260
3 261 262 263
3 261 264 262
3 265 266 267
3 265 268 266
3 265 269 268
3 270 271 272
3 273 274 275
3 273 276 274
3 277 278 279
3 280 281 282
3 280 283 281
3 284 285 286
3 284 287 285
3 284 288 287
3 289 290 291
3 292 293 294
3 292 295 293
3 296 297 298
3 299 300 301
3 299 302 300
3 303 304 305
3 303 306 304
3 303 307 306
3 308 309 310
3 311 312 313
3 311 314 312
3 315 316 317
3 318 319 320
3 318 321 319
3 322 323 324
3 322 325 323
3 322 326 325
3 327 328 329
3 330 331 332
3 330 333 331
3 334 335 336
3 337 338 339
3 337 340 338
3 341 342 343
3 341 344 342
3 341 345 344
3 346 347 348
3 349 350 351
3 349 352 350
3 353 354 355
3 356 357 358
3 356 359 357
3 360 361 362
3 360 363 361
3 360 364 363
3 365 366 367
3 368 369 370
3 368 371 369
3 372 373 374
3 375 376 377
3 375 378 376
3 379 380 381
3 379 382 380
3 379 383 382
3 384 385 386
3 387 388 389
3 387 390 388
3 391 392 393
3 394 395 396
3 394 397 395
3 398 399 400
3 398 401 399
3 398 402 401
3 403 404 405
3 406 407 408
3 406 409 407
3 410 411 412
3 413 414 415
3 413 416 414
3 417 418 419
3 417 420 418
3 417 421 420
3 422 423 424
3 425 426 427
3 425 428 426
3 429 430 431
3 2 123 120
3 2 1 123
3 1 124 123
3 5 130 127
3 5 4 130
3 4 131 130
3 8 137 134
3 8 7 137
3 7 138 137
3 11 144 141
3 11 10 144
3 10 145 144
3 14 151 148
3 14 13 151
3 13 152 151
3 17 158 155
3 17 16 158
3 16 159 158
3 20 165 162
3 20 19 165
3 19 166 165
3 23 172 169
3 23 22 172
3 22 173 172
3 26 179 176
3 26 25 179
3 25 180 179
3 29 186 183
3 29 28 186
3 28 187 186
3 32 193 190
3 32 31 193
3 31 194 193
3 35 200 197
3 35 34 200
3 34 201 200
3 38 207 204
3 38 37 207
3 37 208 207
3 37 212 208
3 37 39 212
3 39 213 212
3 42 219 216
3 42 41 219
3 41 220 219
3 45 226 223
3 45 44 226
3 44 227 226
3 44 231 227
3 44 46 231
3 46 232 231
3 49 238 235
3 49 48 238
3 48 239 238
3 52 245 242
3 52 51 245
3 51 246 245
3 51 250 246
3 51 53 250
3 53 251 250
3 56 257 254
3 56 55 257
3 55 258 257
3 59 264 261
3 59 58 264
3 58 265 264
3 58 269 265
3 58 60 269
3 60 270 269
3 63 276 273
3 63 62 276
3 62 277 276
3 66 283 280
3 66 65 283
3 65 284 283
3 65 288 284
3 65 67 288
3 67 289 288
3 70 295 292
3 70 69 295
3 69 296 295
3 73 302 299
3 73 72 302
3 72 303 302
3 72 307 303
3 72 74 307
3 74 308 307
3 77 314 311
3 77 76 314
3 76 315 314
3 80 321 318
3 80 79 321
3 79 322 321
3 79 326 322
3 79 81 326
3 81 327 326
3 84 333 330
3 84 83 333
3 83 334 333
3 87 340 337
3 87 86 340
3 86 341 340
3 86 345 341
3 86 88 345
3 88 346 345
3 91 352 349
3 91 90 352
3 90 353 352
3 94 359 356
3 94 93 359
3 93 360 359
3 93 364 360
3 93 95 364
3 95 365 364
3 98 371 368
3 98 97 371
3 97 372 371
3 101 378 375
3 101 100 378
3 100 379 378
3 100 383 379
3 100 102 383
3 102 384 383
3 105 390 387
3 105 104 390
3 104 391 390
3 108 397 394
3 108 107 397
3 107 398 397
3 107 402 398
3 107 109 402
3 109 403 402
3 112 409 406
3 112 111 409
3 111 410 409
3 115 416 413
3 115 114 416
3 114 417 416
3 114 421 417
3 114 116 421
3 116 422 421
3 119 428 425
3 119 118 428
3 118 429 428
3 122 39 36
3 122 121 39
3 121 213 39
3 121 126 213
3 121 123 126
3 123 124 126
3 126 214 213
3 126 125 214
3 125 40 214
3 129 46 43
3 129 128 46
3 128 232 46
3 128 133 232
3 128 130 133
3 130 131 133
3 133 233 232
3 133 132 233
3 132 47 233
3 136 53 50
3 136 135 53
3 135 251 53
3 135 140 251
3 135 137 140
3 137 138 140
3 140 252 251
3 140 139 252
3 139 54 252
3 143 60 57
3 143 142 60
3 142 270 60
3 142 147 270
3 142 144 147
3 144 145 147
3 147 271 270
3 147 146 271
3 146 61 271
3 150 67 64
3 150 149 67
3 149 289 67
3 149 154 289
3 149 151 154
3 151 152 154
3 154 290 289
3 154 153 290
3 153 68 290
3 157 74 71
3 157 156 74
3 156 308 74
3 156 161 308
3 156 158 161
3 158 159 161
3 161 309 308
3 161 160 309
3 160 75 309
3 164 81 78
3 164 163 81
3 163 327 81
3 163 168 327
3 163 165 168
3 165 166 168
3 168 328 327
3 168 167 328
3 167 82 328
3 171 88 85
3 171 170 88
3 170 346 88
3 170 175 346
3 170 172 175
3 172 173 175
3 175 347 346
3 175 174 347
3 174 89 347
3 178 95 92
3 178 177 95
3 177 365 95
3 177 182 365
3 177 179 182
3 179 180 182
3 182 366 365
3 182 181 366
3 181 96 366
3 185 102 99
3 185 184 102
3 184 384 102
3 184 189 384
3 184 186 189
3 186 187 189
3 189 385 384
3 189 188 385
3 188 103 385
3 192 109 106
3 192 191 109
3 191 403 109
3 191 196 403
3 191 193 196
3 193 194 196
3 196 404 403
3 196 195 404
3 195 110 404
3 199 116 113
3 199 198 116
3 198 422 116
3 198 203 422
3 198 200 203
3 200 201 203
3 203 423 422
3 203 202 423
3 202 117 423
3 206 320 432
3 206 205 320
3 205 318 320
3 205 210 318
3 205 207 210
3 207 208 210
3 210 80 318
3 210 209 80
3 209 78 80
3 209 218 78
3 209 211 218
3 211 216 218
3 211 215 216
3 211 212 215
3 212 213 215
3 215 42 216
3 215 214 42
3 214 40 42
3 218 164 78
3 218 217 164
3 217 162 164
3 217 222 162
3 217 219 222
3 219 220 222
3 222 20 162
3 222 221 20
3 221 18 20
3 225 339 433
3 225 224 339
3 224 337 339
3 224 229 337
3 224 226 229
3 226 227 229
3 229 87 337
3 229 228 87
3 228 85 87
3 228 237 85
3 228 230 237
3 230 235 237
3 230 234 235
3 230 231 234
3 231 232 234
3 234 49 235
3 234 233 49
3 233 47 49
3 237 171 85
3 237 236 171
3 236 169 171
3 236 241 169
3 236 238 241
3 238 239 241
3 241 23 169
3 241 240 23
3 240 21 23
3 244 358 434
3 244 243 358
3 243 356 358
3 243 248 356
3 243 245 248
3 245 246 248
3 248 94 356
3 248 247 94
3 247 92 94
3 247 256 92
3 247 249 256
3 249 254 256
3 249 253 254
3 249 250 253
3 250 251 253
3 253 56 254
3 253 252 56
3 252 54 56
3 256 178 92
3 256 255 178
3 255 176 178
3 255 260 176
3 255 257 260
3 257 258 260
3 260 26 176
3 260 259 26
3 259 24 26
3 263 377 435
3 263 262 377
3 262 375 377
3 262 267 375
3 262 264 267
3 264 265 267
3 267 101 375
3 267 266 101
3 266 99 101
3 266 275 99
3 266 268 275
3 268 273 275
3 268 272 273
3 268 269 272
3 269 270 272
3 272 63 273
3 272 271 63
3 271 61 63
3 275 185 99
3 275 274 185
3 274 183 185
3 274 279 183
3 274 276 279
3 276 277 279
3 279 29 183
3 279 278 29
3 278 27 29
3 282 396 436
3 282 281 396
3 281 394 396
3 281 286 394
3 281 283 286
3 283 284 286
3 286 108 394
3 286 285 108
3 285 106 108
3 285 294 106
3 285 287 294
3 287 292 294
3 287 291 292
3 287 288 291
3 288 289 291
3 291 70 292
3 291 290 70
3 290 68 70
3 294 192 106
3 294 293 192
3 293 190 192
3 293 298 190
3 293 295 298
3 295 296 298
3 298 32 190
3 298 297 32
3 297 30 32
3 301 437 438
3 301 300 437
3 300 439 437
3 300 305 439
3 300 302 305
3 302 303 305
3 305 440 439
3 305 304 440
3 304 441 440
3 304 313 441
3 304 306 313
3 306 311 313
3 306 310 311
3 306 307 310
3 307 308 310
3 310 77 311
3 310 309 77
3 309 75 77
3 313 442 441
3 313 312 442
3 312 443 442
3 312 317 443
3 312 314 317
3 314 315 317
3 317 444 443
3 317 316 444
3 316 445 444
3 320 446 432
3 320 319 446
3 319 447 446
3 319 324 447
3 319 321 324
3 321 322 324
3 324 448 447
3 324 323 448
3 323 449 448
3 323 332 449
3 323 325 332
3 325 330 332
3 325 329 330
3 325 326 329
3 326 327 329
3 329 84 330
3 329 328 84
3 328 82 84
3 332 450 449
3 332 331 450
3 331 451 450
3 331 336 451
3 331 333 336
3 333 334 336
3 336 452 451
3 336 335 452
3 335 453 452
3 339 454 433
3 339 338 454
3 338 455 454
3 338 343 455
3 338 340 343
3 340 341 343
3 343 456 455
3 343 342 456
3 342 457 456
3 342 351 457
3 342 344 351
3 344 349 351
3 344 348 349
3 344 345 348
3 345 346 348
3 348 91 349
3 348 347 91
3 347 89 91
3 351 458 457
3 351 350 458
3 350 459 458
3 350 355 459
3 350 352 355
3 352 353 355
3 355 460 459
3 355 354 460
3 354 461 460
3 358 462 434
3 358 357 462
3 357 463 462
3 357 362 463
3 357 359 362
3 359 360 362
3 362 464 463
3 362 361 464
3 361 465 464
3 361 370 465
3 361 363 370
3 363 368 370
3 363 367 368
3 363 364 367
3 364 365 367
3 367 98 368
3 367 366 98
3 366 96 98
3 370 466 465
3 370 369 466
3 369 467 466
3 369 374 467
3 369 371 374
3 371 372 374
3 374 468 467
3 374 373 468
3 373 469 468
3 377 470 435
3 377 376 470
3 376 471 470
3 376 381 471
3 376 378 381
3 378 379 381
3 381 472 471
3 381 380 472
3 380 473 472
3 380 389 473
3 380 382 389
3 382 387 389
3 382 386 387
3 382 383 386
3 383 384 386
3 386 105 387
3 386 385 105
3 385 103 105
3 389 474 473
3 389 388 474
3 388 475 474
3 388 393 475
3 388 390 393
3 390 391 393
3 393 476 475
3 393 392 476
3 392 477 476
3 396 478 436
3 396 395 478
3 395 479 478
3 395 400 479
3 395 397 400
3 397 398 400
3 400 480 479
3 400 399 480
3 399 481 480
3 399 408 481
3 399 401 408
3 401 406 408
3 401 405 406
3 401 402 405
3 402 403 405
3 405 112 406
3 405 404 112
3 404 110 112
3 408 482 481
3 408 407 482
3 407 483 482
3 407 412 483
3 407 409 412
3 409 410 412
3 412 484 483
3 412 411 484
3 411 485 484
3 415 16 15
3 415 414 16
3 414 159 16
3 414 419 159
3 414 416 419
3 416 417 419
3 419 160 159
3 419 418 160
3 418 75 160
3 418 427 75
3 418 420 427
3 420 425 427
3 420 424 425
3 420 421 424
3 421 422 424
3 424 119 425
3 424 423 119
3 423 117 119
3 427 76 75
3 427 426 76
3 426 315 76
3 426 431 315
3 426 428 431
3 428 429 431
3 431 316 315
3 431 430 316
3 430 445 316
