ply
format ascii 1.0
comment Created by Blender 2.69 (sub 0) - www.blender.org, source file: ''
element vertex 30
property float x
property float y
property float z
property float nx
property float ny
property float nz
property float s
property float t
element face 12
property list uchar uint vertex_indices
end_header
1.000000 1.000000 -1.000000 0.000000 -0.000000 1.000000 0.250230 0.665683
-1.000000 1.000000 -1.000000 0.000000 -0.000000 1.000000 0.499874 0.665683
1.000000 -1.000000 -1.000000 0.000000 -0.000000 1.000000 0.250230 0.334537
1.000000 0.999999 1.000000 0.000000 0.000000 -1.000000 0.999816 0.665684
0.999999 -1.000001 1.000000 0.000000 0.000000 -1.000000 0.999816 0.334538
-1.000000 1.000000 1.000000 0.000000 0.000000 -1.000000 0.748695 0.665684
1.000000 1.000000 -1.000000 -1.000000 0.000000 -0.000000 0.250230 0.665683
1.000000 -1.000000 -1.000000 -1.000000 0.000000 -0.000000 0.250230 0.334537
1.000000 0.999999 1.000000 -1.000000 0.000000 -0.000000 0.000257 0.665683
1.000000 -1.000000 -1.000000 -0.000000 1.000000 0.000001 0.250230 0.334537
-1.000000 -1.000000 -1.000000 -0.000000 1.000000 0.000001 0.499874 0.334537
0.999999 -1.000001 1.000000 -0.000000 1.000000 0.000001 0.250230 0.000914
-1.000000 -1.000000 -1.000000 1.000000 0.000000 0.000000 0.499874 0.334537
-1.000000 1.000000 -1.000000 1.000000 0.000000 0.000000 0.499874 0.665683
-1.000000 -1.000000 1.000000 1.000000 0.000000 0.000000 0.748695 0.334537
-1.000000 1.000000 1.000000 -0.000001 -1.000000 -0.000001 0.499874 0.998436
1.000000 1.000000 -1.000000 -0.000001 -1.000000 -0.000001 0.250230 0.665683
1.000000 0.999999 1.000000 -0.000001 -1.000000 -0.000001 0.250230 0.998436
-1.000000 -1.000000 -1.000000 0.000000 -0.000000 1.000000 0.499874 0.334537
-1.000000 -1.000000 1.000000 0.000000 0.000000 -1.000000 0.748695 0.334537
1.000000 -1.000000 -1.000000 -1.000000 0.000001 -0.000001 0.250230 0.334537
0.999999 -1.000001 1.000000 -1.000000 0.000001 -0.000001 0.000257 0.334537
1.000000 0.999999 1.000000 -1.000000 0.000001 -0.000001 0.000257 0.665683
-1.000000 -1.000000 -1.000000 0.000000 1.000000 0.000000 0.499874 0.334537
-1.000000 -1.000000 1.000000 0.000000 1.000000 0.000000 0.499874 0.000913
0.999999 -1.000001 1.000000 0.000000 1.000000 0.000000 0.250230 0.000914
-1.000000 1.000000 1.000000 1.000000 -0.000000 0.000000 0.748695 0.665684
-1.000000 1.000000 -1.000000 -0.000000 -1.000000 -0.000000 0.499874 0.665683
1.000000 1.000000 -1.000000 -0.000000 -1.000000 -0.000000 0.250230 0.665683
-1.000000 1.000000 1.000000 -0.000000 -1.000000 -0.000000 0.499874 0.998436
3 0 1 2
3 3 4 5
3 6 7 8
3 9 10 11
3 12 13 14
3 15 16 17
3 1 18 2
3 4 19 5
3 20 21 22
3 23 24 25
3 13 26 14
3 27 28 29
