ply
format ascii 1.0
comment Created by Blender 2.69 (sub 0) - www.blender.org, source file: ''
element vertex 30
property float x
property float y
property float z
property float nx
property float ny
property float nz
property float s
property float t
element face 12
property list uchar uint vertex_indices
end_header
1.000000 1.000000 -1.000000 0.000000 -0.000000 1.000000 0.250693 0.665908
-1.000000 1.000000 -1.000000 0.000000 -0.000000 1.000000 0.500337 0.665908
1.000000 -1.000000 -1.000000 0.000000 -0.000000 1.000000 0.250693 0.334267
1.000000 0.999999 1.000000 0.000000 0.000000 -1.000000 1.000279 0.665909
0.999999 -1.000001 1.000000 0.000000 0.000000 -1.000000 1.000279 0.334268
-1.000000 1.000000 1.000000 0.000000 0.000000 -1.000000 0.749159 0.665909
1.000000 1.000000 -1.000000 -1.000000 0.000000 -0.000000 0.250693 0.665908
1.000000 -1.000000 -1.000000 -1.000000 0.000000 -0.000000 0.250693 0.334267
1.000000 0.999999 1.000000 -1.000000 0.000000 -0.000000 0.000720 0.665908
1.000000 -1.000000 -1.000000 -0.000000 1.000000 0.000001 0.250693 0.334267
-1.000000 -1.000000 -1.000000 -0.000000 1.000000 0.000001 0.500337 0.334267
0.999999 -1.000001 1.000000 -0.000000 1.000000 0.000001 0.250693 0.000146
-1.000000 -1.000000 -1.000000 1.000000 0.000000 0.000000 0.500337 0.334267
-1.000000 1.000000 -1.000000 1.000000 0.000000 0.000000 0.500337 0.665908
-1.000000 -1.000000 1.000000 1.000000 0.000000 0.000000 0.749159 0.334267
-1.000000 1.000000 1.000000 -0.000001 -1.000000 -0.000001 0.500337 0.999158
1.000000 1.000000 -1.000000 -0.000001 -1.000000 -0.000001 0.250693 0.665908
1.000000 0.999999 1.000000 -0.000001 -1.000000 -0.000001 0.250693 0.999158
-1.000000 -1.000000 -1.000000 0.000000 -0.000000 1.000000 0.500337 0.334267
-1.000000 -1.000000 1.000000 0.000000 0.000000 -1.000000 0.749159 0.334267
1.000000 -1.000000 -1.000000 -1.000000 0.000001 -0.000001 0.250693 0.334267
0.999999 -1.000001 1.000000 -1.000000 0.000001 -0.000001 0.000720 0.334267
1.000000 0.999999 1.000000 -1.000000 0.000001 -0.000001 0.000720 0.665908
-1.000000 -1.000000 -1.000000 0.000000 1.000000 0.000000 0.500337 0.334267
-1.000000 -1.000000 1.000000 0.000000 1.000000 0.000000 0.500337 0.000145
0.999999 -1.000001 1.000000 0.000000 1.000000 0.000000 0.250693 0.000146
-1.000000 1.000000 1.000000 1.000000 -0.000000 0.000000 0.749159 0.665909
-1.000000 1.000000 -1.000000 -0.000000 -1.000000 -0.000000 0.500337 0.665908
1.000000 1.000000 -1.000000 -0.000000 -1.000000 -0.000000 0.250693 0.665908
-1.000000 1.000000 1.000000 -0.000000 -1.000000 -0.000000 0.500337 0.999158
3 0 1 2
3 3 4 5
3 6 7 8
3 9 10 11
3 12 13 14
3 15 16 17
3 1 18 2
3 4 19 5
3 20 21 22
3 23 24 25
3 13 26 14
3 27 28 29
