# Blender v2.69 (sub 0) OBJ File: ''
# www.blender.org
v 1.000000 -1.000000 -1.000000
v -1.000000 -1.000000 -1.000000
v 1.000000 -1.000000 1.000000
v 1.000000 1.000000 -0.999999
v 0.999999 1.000000 1.000001
v -1.000000 1.000000 -1.000000
v -1.000000 -1.000000 1.000000
v -1.000000 1.000000 1.000000
vt 0.250693 0.665908
vt 0.500337 0.665908
vt 0.250693 0.334267
vt 1.000279 0.665909
vt 1.000279 0.334268
vt 0.749159 0.665909
vt 0.000720 0.665908
vt 0.500337 0.334267
vt 0.250693 0.000146
vt 0.749159 0.334267
vt 0.500337 0.999158
vt 0.250693 0.999158
vt 0.000720 0.334267
vt 0.500337 0.000145
vn 0.000000 1.000000 0.000000
vn 0.000000 -1.000000 -0.000000
vn -1.000000 -0.000000 0.000000
vn 0.000000 0.000001 -1.000000
vn 1.000000 0.000000 0.000000
vn -0.000001 -0.000001 1.000000
vn -1.000000 -0.000000 -0.000001
vn 0.000000 0.000000 -1.000000
vn 0.000000 -0.000000 1.000000
s off
f 1/1/1 2/2/1 3/3/1
f 4/4/2 5/5/2 6/6/2
f 1/1/3 3/3/3 4/7/3
f 3/3/4 7/8/4 5/9/4
f 7/8/5 2/2/5 8/10/5
f 6/11/6 1/1/6 4/12/6
f 2/2/1 7/8/1 3/3/1
f 5/5/2 8/10/2 6/6/2
f 3/3/7 5/13/7 4/7/7
f 7/8/8 8/14/8 5/9/8
f 2/2/5 6/6/5 8/10/5
f 2/2/9 1/1/9 6/11/9
