# Blender v2.69 (sub 0) OBJ File: ''
# www.blender.org
v 1.000000 -1.000000 -1.000000
v 1.000000 -1.000000 1.000000
v -1.000000 -1.000000 1.000000
v -1.000000 -1.000000 -1.000000
v 1.000000 1.000000 -0.999999
v 0.999999 1.000000 1.000001
v -1.000000 1.000000 1.000000
v -1.000000 1.000000 -1.000000
vt 0.251630 0.663467
vt 0.501587 0.663467
vt 0.251630 0.331845
vt 1.001500 0.663468
vt 1.001500 0.331846
vt 0.751543 0.663468
vt 0.001674 0.663467
vt 0.501587 0.331845
vt 0.251630 0.000224
vt 0.751543 0.331845
vt 0.251630 0.995089
vt 0.501587 0.995089
vt 0.001674 0.331845
vt 0.501587 0.000223
vn 0.000000 1.000000 0.000000
vn 0.000000 -1.000000 0.000000
vn -1.000000 0.000000 0.000000
vn 0.000000 0.000000 -1.000000
vn 1.000000 0.000000 0.000000
vn -0.000000 -0.000000 1.000000
vn -1.000000 -0.000000 -0.000001
s off
f 1/1/1 4/2/1 2/3/1
f 5/4/2 6/5/2 8/6/2
f 1/1/3 2/3/3 5/7/3
f 2/3/4 3/8/4 6/9/4
f 3/8/5 4/2/5 7/10/5
f 5/11/6 8/12/6 1/1/6
f 4/2/1 3/8/1 2/3/1
f 6/5/2 7/10/2 8/6/2
f 2/3/7 6/13/7 5/7/7
f 3/8/4 7/14/4 6/9/4
f 4/2/5 8/6/5 7/10/5
f 8/12/6 4/2/6 1/1/6
