# Blender v2.69 (sub 0) OBJ File: ''
# www.blender.org
v -1.000000 -1.000000 -0.000000
v -0.750000 -1.000000 -0.000000
v -0.750000 -0.750000 -0.000000
v -1.000000 1.000000 0.000000
v -1.000000 0.750000 0.000000
v -0.750000 1.000000 0.000000
v 0.000000 0.000000 0.000000
v 0.250000 0.000000 0.000000
v 0.250000 0.250000 0.000000
v 0.000000 -0.250000 -0.000000
v 0.000000 -1.000000 -0.000000
v 0.250000 -1.000000 -0.000000
v 0.250000 -0.750000 -0.000000
v 0.000000 1.000000 0.000000
v 0.000000 0.750000 0.000000
v 0.250000 1.000000 0.000000
v -0.250000 0.750000 0.000000
v -1.000000 0.000000 0.000000
v -1.000000 -0.250000 -0.000000
v -0.750000 0.000000 0.000000
v -0.500000 -0.500000 -0.000000
v -0.250000 -0.500000 -0.000000
v -0.250000 -0.250000 -0.000000
v -0.500000 -0.750000 -0.000000
v -0.500000 -1.000000 -0.000000
v -0.250000 -1.000000 -0.000000
v -0.250000 -0.750000 -0.000000
v -0.500000 1.000000 0.000000
v -0.500000 0.750000 0.000000
v -0.250000 1.000000 0.000000
v -0.750000 0.750000 0.000000
v -1.000000 0.500000 0.000000
v -1.000000 0.250000 0.000000
v -0.750000 0.500000 0.000000
v 0.500000 0.500000 0.000000
v 0.750000 0.500000 0.000000
v 0.750000 0.750000 0.000000
v 0.500000 0.250000 0.000000
v 0.500000 0.000000 0.000000
v 0.750000 0.000000 0.000000
v 0.750000 0.250000 0.000000
v 0.500000 -0.250000 -0.000000
v 0.250000 -0.250000 -0.000000
v 0.000000 -0.500000 -0.000000
v 0.000000 -0.750000 -0.000000
v 0.250000 -0.500000 -0.000000
v 0.500000 -0.500000 -0.000000
v 0.750000 -0.500000 -0.000000
v 0.750000 -0.250000 -0.000000
v 0.500000 -0.750000 -0.000000
v 0.500000 -1.000000 -0.000000
v 0.750000 -1.000000 -0.000000
v 0.750000 -0.750000 -0.000000
v 0.500000 1.000000 0.000000
v 0.500000 0.750000 0.000000
v 0.750000 1.000000 0.000000
v 0.250000 0.750000 0.000000
v 0.000000 0.500000 0.000000
v 0.000000 0.250000 0.000000
v 0.250000 0.500000 0.000000
v -0.250000 0.250000 0.000000
v -0.250000 0.500000 0.000000
v -0.500000 0.500000 0.000000
v -0.750000 0.250000 0.000000
v -0.500000 0.250000 0.000000
v -0.500000 0.000000 0.000000
v -0.500000 -0.250000 -0.000000
v -0.250000 0.000000 0.000000
v -0.750000 -0.250000 -0.000000
v -1.000000 -0.500000 -0.000000
v -1.000000 -0.750000 -0.000000
v -0.750000 -0.500000 -0.000000
v 1.000000 0.750000 0.000000
v 1.000000 1.000000 0.000000
v 1.000000 0.500000 0.000000
v 1.000000 0.250000 0.000000
v 1.000000 0.000000 0.000000
v 1.000000 -0.250000 -0.000000
v 1.000000 -0.500000 -0.000000
v 1.000000 -0.750000 -0.000000
v 1.000000 -1.000000 -0.000000
vt 0.999898 0.000100
vt 0.999898 0.125075
vt 0.874923 0.125075
vt 0.000100 0.000108
vt 0.125073 0.000106
vt 0.000102 0.125081
vt 0.500000 0.500000
vt 0.500000 0.624974
vt 0.375026 0.624974
vt 0.624974 0.499999
vt 0.999898 0.500000
vt 0.999898 0.624974
vt 0.874923 0.624974
vt 0.000105 0.500001
vt 0.125078 0.500001
vt 0.000105 0.624974
vt 0.125078 0.375027
vt 0.499997 0.000101
vt 0.624973 0.000100
vt 0.499998 0.125076
vt 0.749949 0.250050
vt 0.749949 0.375025
vt 0.624974 0.375025
vt 0.874923 0.250050
vt 0.999898 0.250050
vt 0.999898 0.375025
vt 0.874923 0.375025
vt 0.000103 0.250055
vt 0.125076 0.250054
vt 0.000104 0.375028
vt 0.125075 0.125080
vt 0.250047 0.000104
vt 0.375022 0.000102
vt 0.250049 0.125078
vt 0.250052 0.749948
vt 0.250053 0.874922
vt 0.125079 0.874922
vt 0.375026 0.749948
vt 0.500000 0.749948
vt 0.500000 0.874922
vt 0.375026 0.874922
vt 0.624974 0.749948
vt 0.624974 0.624974
vt 0.749949 0.499999
vt 0.874923 0.499999
vt 0.749949 0.624974
vt 0.749948 0.749948
vt 0.749948 0.874923
vt 0.624974 0.874922
vt 0.874923 0.749949
vt 0.999898 0.749950
vt 0.999897 0.874925
vt 0.874922 0.874924
vt 0.000105 0.749948
vt 0.125079 0.749948
vt 0.000105 0.874922
vt 0.125079 0.624974
vt 0.250052 0.500000
vt 0.375026 0.500000
vt 0.250052 0.624974
vt 0.375025 0.375026
vt 0.250051 0.375026
vt 0.250050 0.250052
vt 0.375023 0.125077
vt 0.375024 0.250051
vt 0.499999 0.250051
vt 0.624974 0.250050
vt 0.500000 0.375025
vt 0.624973 0.125075
vt 0.749948 0.000100
vt 0.874923 0.000100
vt 0.749948 0.125075
vt 0.125079 0.999896
vt 0.000105 0.999896
vt 0.250053 0.999896
vt 0.375027 0.999895
vt 0.500000 0.999895
vt 0.624973 0.999896
vt 0.749947 0.999897
vt 0.874921 0.999898
vt 0.999895 0.999900
vn 0.000000 -0.000000 1.000000
s off
f 1/1/1 2/2/1 3/3/1
f 4/4/1 5/5/1 6/6/1
f 7/7/1 8/8/1 9/9/1
f 7/7/1 10/10/1 8/8/1
f 11/11/1 12/12/1 13/13/1
f 14/14/1 15/15/1 16/16/1
f 14/14/1 17/17/1 15/15/1
f 18/18/1 19/19/1 20/20/1
f 21/21/1 22/22/1 23/23/1
f 21/21/1 24/24/1 22/22/1
f 25/25/1 26/26/1 27/27/1
f 28/28/1 29/29/1 30/30/1
f 28/28/1 31/31/1 29/29/1
f 32/32/1 33/33/1 34/34/1
f 35/35/1 36/36/1 37/37/1
f 35/35/1 38/38/1 36/36/1
f 39/39/1 40/40/1 41/41/1
f 39/39/1 42/42/1 40/40/1
f 39/39/1 43/43/1 42/42/1
f 44/44/1 45/45/1 46/46/1
f 47/47/1 48/48/1 49/49/1
f 47/47/1 50/50/1 48/48/1
f 51/51/1 52/52/1 53/53/1
f 54/54/1 55/55/1 56/56/1
f 54/54/1 57/57/1 55/55/1
f 58/58/1 59/59/1 60/60/1
f 58/58/1 61/61/1 59/59/1
f 58/58/1 62/62/1 61/61/1
f 63/63/1 64/64/1 65/65/1
f 66/66/1 67/67/1 68/68/1
f 66/66/1 69/69/1 67/67/1
f 70/70/1 71/71/1 72/72/1
f 3/3/1 24/24/1 21/21/1
f 3/3/1 2/2/1 24/24/1
f 2/2/1 25/25/1 24/24/1
f 6/6/1 31/31/1 28/28/1
f 6/6/1 5/5/1 31/31/1
f 5/5/1 32/32/1 31/31/1
f 9/9/1 38/38/1 35/35/1
f 9/9/1 8/8/1 38/38/1
f 8/8/1 39/39/1 38/38/1
f 8/8/1 43/43/1 39/39/1
f 8/8/1 10/10/1 43/43/1
f 10/10/1 44/44/1 43/43/1
f 13/13/1 50/50/1 47/47/1
f 13/13/1 12/12/1 50/50/1
f 12/12/1 51/51/1 50/50/1
f 16/16/1 57/57/1 54/54/1
f 16/16/1 15/15/1 57/57/1
f 15/15/1 58/58/1 57/57/1
f 15/15/1 62/62/1 58/58/1
f 15/15/1 17/17/1 62/62/1
f 17/17/1 63/63/1 62/62/1
f 20/20/1 69/69/1 66/66/1
f 20/20/1 19/19/1 69/69/1
f 19/19/1 70/70/1 69/69/1
f 23/23/1 10/10/1 7/7/1
f 23/23/1 22/22/1 10/10/1
f 22/22/1 44/44/1 10/10/1
f 22/22/1 27/27/1 44/44/1
f 22/22/1 24/24/1 27/27/1
f 24/24/1 25/25/1 27/27/1
f 27/27/1 45/45/1 44/44/1
f 27/27/1 26/26/1 45/45/1
f 26/26/1 11/11/1 45/45/1
f 30/30/1 17/17/1 14/14/1
f 30/30/1 29/29/1 17/17/1
f 29/29/1 63/63/1 17/17/1
f 29/29/1 34/34/1 63/63/1
f 29/29/1 31/31/1 34/34/1
f 31/31/1 32/32/1 34/34/1
f 34/34/1 64/64/1 63/63/1
f 34/34/1 33/33/1 64/64/1
f 33/33/1 18/18/1 64/64/1
f 37/37/1 73/73/1 74/74/1
f 37/37/1 36/36/1 73/73/1
f 36/36/1 75/75/1 73/73/1
f 36/36/1 41/41/1 75/75/1
f 36/36/1 38/38/1 41/41/1
f 38/38/1 39/39/1 41/41/1
f 41/41/1 76/76/1 75/75/1
f 41/41/1 40/40/1 76/76/1
f 40/40/1 77/77/1 76/76/1
f 40/40/1 49/49/1 77/77/1
f 40/40/1 42/42/1 49/49/1
f 42/42/1 47/47/1 49/49/1
f 42/42/1 46/46/1 47/47/1
f 42/42/1 43/43/1 46/46/1
f 43/43/1 44/44/1 46/46/1
f 46/46/1 13/13/1 47/47/1
f 46/46/1 45/45/1 13/13/1
f 45/45/1 11/11/1 13/13/1
f 49/49/1 78/78/1 77/77/1
f 49/49/1 48/48/1 78/78/1
f 48/48/1 79/79/1 78/78/1
f 48/48/1 53/53/1 79/79/1
f 48/48/1 50/50/1 53/53/1
f 50/50/1 51/51/1 53/53/1
f 53/53/1 80/80/1 79/79/1
f 53/53/1 52/52/1 80/80/1
f 52/52/1 81/81/1 80/80/1
f 56/56/1 37/37/1 74/74/1
f 56/56/1 55/55/1 37/37/1
f 55/55/1 35/35/1 37/37/1
f 55/55/1 60/60/1 35/35/1
f 55/55/1 57/57/1 60/60/1
f 57/57/1 58/58/1 60/60/1
f 60/60/1 9/9/1 35/35/1
f 60/60/1 59/59/1 9/9/1
f 59/59/1 7/7/1 9/9/1
f 59/59/1 68/68/1 7/7/1
f 59/59/1 61/61/1 68/68/1
f 61/61/1 66/66/1 68/68/1
f 61/61/1 65/65/1 66/66/1
f 61/61/1 62/62/1 65/65/1
f 62/62/1 63/63/1 65/65/1
f 65/65/1 20/20/1 66/66/1
f 65/65/1 64/64/1 20/20/1
f 64/64/1 18/18/1 20/20/1
f 68/68/1 23/23/1 7/7/1
f 68/68/1 67/67/1 23/23/1
f 67/67/1 21/21/1 23/23/1
f 67/67/1 72/72/1 21/21/1
f 67/67/1 69/69/1 72/72/1
f 69/69/1 70/70/1 72/72/1
f 72/72/1 3/3/1 21/21/1
f 72/72/1 71/71/1 3/3/1
f 71/71/1 1/1/1 3/3/1
