# Blender v2.69 (sub 0) OBJ File: ''
# www.blender.org
o quad
v -1.000000 -0.000000 1.000000
v -0.750000 -0.000000 1.000000
v -0.750000 -0.000000 0.750000
v -1.000000 0.000000 -1.000000
v -1.000000 0.000000 -0.750000
v -0.750000 0.000000 -1.000000
v 0.000000 0.000000 0.000000
v 0.250000 0.000000 0.000000
v 0.250000 0.000000 -0.250000
v 0.000000 -0.000000 0.250000
v 0.000000 -0.000000 1.000000
v 0.250000 -0.000000 1.000000
v 0.250000 -0.000000 0.750000
v 0.000000 0.000000 -1.000000
v 0.000000 0.000000 -0.750000
v 0.250000 0.000000 -1.000000
v -0.250000 0.000000 -0.750000
v -1.000000 0.000000 0.000000
v -1.000000 -0.000000 0.250000
v -0.750000 0.000000 0.000000
v -0.500000 -0.000000 0.500000
v -0.250000 -0.000000 0.500000
v -0.250000 -0.000000 0.250000
v -0.500000 -0.000000 0.750000
v -0.500000 -0.000000 1.000000
v -0.250000 -0.000000 1.000000
v -0.250000 -0.000000 0.750000
v -0.500000 0.000000 -1.000000
v -0.500000 0.000000 -0.750000
v -0.250000 0.000000 -1.000000
v -0.750000 0.000000 -0.750000
v -1.000000 0.000000 -0.500000
v -1.000000 0.000000 -0.250000
v -0.750000 0.000000 -0.500000
v 0.500000 0.000000 -0.500000
v 0.750000 0.000000 -0.500000
v 0.750000 0.000000 -0.750000
v 0.500000 0.000000 -0.250000
v 0.500000 0.000000 0.000000
v 0.750000 0.000000 0.000000
v 0.750000 0.000000 -0.250000
v 0.500000 -0.000000 0.250000
v 0.250000 -0.000000 0.250000
v 0.000000 -0.000000 0.500000
v 0.000000 -0.000000 0.750000
v 0.250000 -0.000000 0.500000
v 0.500000 -0.000000 0.500000
v 0.750000 -0.000000 0.500000
v 0.750000 -0.000000 0.250000
v 0.500000 -0.000000 0.750000
v 0.500000 -0.000000 1.000000
v 0.750000 -0.000000 1.000000
v 0.750000 -0.000000 0.750000
v 0.500000 0.000000 -1.000000
v 0.500000 0.000000 -0.750000
v 0.750000 0.000000 -1.000000
v 0.250000 0.000000 -0.750000
v 0.000000 0.000000 -0.500000
v 0.000000 0.000000 -0.250000
v 0.250000 0.000000 -0.500000
v -0.250000 0.000000 -0.250000
v -0.250000 0.000000 -0.500000
v -0.500000 0.000000 -0.500000
v -0.750000 0.000000 -0.250000
v -0.500000 0.000000 -0.250000
v -0.500000 0.000000 0.000000
v -0.500000 -0.000000 0.250000
v -0.250000 0.000000 0.000000
v -0.750000 -0.000000 0.250000
v -1.000000 -0.000000 0.500000
v -1.000000 -0.000000 0.750000
v -0.750000 -0.000000 0.500000
v 1.000000 0.000000 -0.750000
v 1.000000 0.000000 -1.000000
v 1.000000 0.000000 -0.500000
v 1.000000 0.000000 -0.250000
v 1.000000 0.000000 0.000000
v 1.000000 -0.000000 0.250000
v 1.000000 -0.000000 0.500000
v 1.000000 -0.000000 0.750000
v 1.000000 -0.000000 1.000000
vn 0.000000 1.000000 0.000000
s off
f 1//1 2//1 3//1
f 4//1 5//1 6//1
f 7//1 8//1 9//1
f 7//1 10//1 8//1
f 11//1 12//1 13//1
f 14//1 15//1 16//1
f 14//1 17//1 15//1
f 18//1 19//1 20//1
f 21//1 22//1 23//1
f 21//1 24//1 22//1
f 25//1 26//1 27//1
f 28//1 29//1 30//1
f 28//1 31//1 29//1
f 32//1 33//1 34//1
f 35//1 36//1 37//1
f 35//1 38//1 36//1
f 39//1 40//1 41//1
f 39//1 42//1 40//1
f 39//1 43//1 42//1
f 44//1 45//1 46//1
f 47//1 48//1 49//1
f 47//1 50//1 48//1
f 51//1 52//1 53//1
f 54//1 55//1 56//1
f 54//1 57//1 55//1
f 58//1 59//1 60//1
f 58//1 61//1 59//1
f 58//1 62//1 61//1
f 63//1 64//1 65//1
f 66//1 67//1 68//1
f 66//1 69//1 67//1
f 70//1 71//1 72//1
f 3//1 24//1 21//1
f 3//1 2//1 24//1
f 2//1 25//1 24//1
f 6//1 31//1 28//1
f 6//1 5//1 31//1
f 5//1 32//1 31//1
f 9//1 38//1 35//1
f 9//1 8//1 38//1
f 8//1 39//1 38//1
f 8//1 43//1 39//1
f 8//1 10//1 43//1
f 10//1 44//1 43//1
f 13//1 50//1 47//1
f 13//1 12//1 50//1
f 12//1 51//1 50//1
f 16//1 57//1 54//1
f 16//1 15//1 57//1
f 15//1 58//1 57//1
f 15//1 62//1 58//1
f 15//1 17//1 62//1
f 17//1 63//1 62//1
f 20//1 69//1 66//1
f 20//1 19//1 69//1
f 19//1 70//1 69//1
f 23//1 10//1 7//1
f 23//1 22//1 10//1
f 22//1 44//1 10//1
f 22//1 27//1 44//1
f 22//1 24//1 27//1
f 24//1 25//1 27//1
f 27//1 45//1 44//1
f 27//1 26//1 45//1
f 26//1 11//1 45//1
f 30//1 17//1 14//1
f 30//1 29//1 17//1
f 29//1 63//1 17//1
f 29//1 34//1 63//1
f 29//1 31//1 34//1
f 31//1 32//1 34//1
f 34//1 64//1 63//1
f 34//1 33//1 64//1
f 33//1 18//1 64//1
f 37//1 73//1 74//1
f 37//1 36//1 73//1
f 36//1 75//1 73//1
f 36//1 41//1 75//1
f 36//1 38//1 41//1
f 38//1 39//1 41//1
f 41//1 76//1 75//1
f 41//1 40//1 76//1
f 40//1 77//1 76//1
f 40//1 49//1 77//1
f 40//1 42//1 49//1
f 42//1 47//1 49//1
f 42//1 46//1 47//1
f 42//1 43//1 46//1
f 43//1 44//1 46//1
f 46//1 13//1 47//1
f 46//1 45//1 13//1
f 45//1 11//1 13//1
f 49//1 78//1 77//1
f 49//1 48//1 78//1
f 48//1 79//1 78//1
f 48//1 53//1 79//1
f 48//1 50//1 53//1
f 50//1 51//1 53//1
f 53//1 80//1 79//1
f 53//1 52//1 80//1
f 52//1 81//1 80//1
f 56//1 37//1 74//1
f 56//1 55//1 37//1
f 55//1 35//1 37//1
f 55//1 60//1 35//1
f 55//1 57//1 60//1
f 57//1 58//1 60//1
f 60//1 9//1 35//1
f 60//1 59//1 9//1
f 59//1 7//1 9//1
f 59//1 68//1 7//1
f 59//1 61//1 68//1
f 61//1 66//1 68//1
f 61//1 65//1 66//1
f 61//1 62//1 65//1
f 62//1 63//1 65//1
f 65//1 20//1 66//1
f 65//1 64//1 20//1
f 64//1 18//1 20//1
f 68//1 23//1 7//1
f 68//1 67//1 23//1
f 67//1 21//1 23//1
f 67//1 72//1 21//1
f 67//1 69//1 72//1
f 69//1 70//1 72//1
f 72//1 3//1 21//1
f 72//1 71//1 3//1
f 71//1 1//1 3//1
