ply
format ascii 1.0
comment Created by Blender 2.69 (sub 0) - www.blender.org, source file: ''
element vertex 81
property float x
property float y
property float z
property float nx
property float ny
property float nz
element face 128
property list uchar uint vertex_indices
end_header
-1.000000 -1.000000 0.000000 0.000000 0.000000 1.000000
-0.750000 -1.000000 0.000000 0.000000 0.000000 1.000000
-0.750000 -0.750000 0.000000 0.000000 0.000000 1.000000
-1.000000 1.000000 0.000000 0.000000 -0.000000 1.000000
-1.000000 0.750000 0.000000 0.000000 -0.000000 1.000000
-0.750000 1.000000 0.000000 0.000000 -0.000000 1.000000
0.000000 0.000000 0.000000 0.000000 0.000000 1.000000
0.250000 0.000000 0.000000 0.000000 0.000000 1.000000
0.250000 0.250000 0.000000 0.000000 0.000000 1.000000
0.000000 -0.250000 0.000000 0.000000 -0.000000 1.000000
0.000000 -1.000000 0.000000 0.000000 0.000000 1.000000
0.250000 -1.000000 0.000000 0.000000 0.000000 1.000000
0.250000 -0.750000 0.000000 0.000000 0.000000 1.000000
0.000000 1.000000 0.000000 0.000000 -0.000000 1.000000
0.000000 0.750000 0.000000 0.000000 -0.000000 1.000000
0.250000 1.000000 0.000000 0.000000 -0.000000 1.000000
-0.250000 0.750000 0.000000 0.000000 -0.000000 1.000000
-1.000000 0.000000 0.000000 0.000000 -0.000000 1.000000
-1.000000 -0.250000 0.000000 0.000000 -0.000000 1.000000
-0.750000 0.000000 0.000000 0.000000 -0.000000 1.000000
-0.500000 -0.500000 0.000000 0.000000 0.000000 1.000000
-0.250000 -0.500000 0.000000 0.000000 0.000000 1.000000
-0.250000 -0.250000 0.000000 0.000000 0.000000 1.000000
-0.500000 -0.750000 0.000000 0.000000 -0.000000 1.000000
-0.500000 -1.000000 0.000000 0.000000 0.000000 1.000000
-0.250000 -1.000000 0.000000 0.000000 0.000000 1.000000
-0.250000 -0.750000 0.000000 0.000000 0.000000 1.000000
-0.500000 1.000000 0.000000 0.000000 -0.000000 1.000000
-0.500000 0.750000 0.000000 0.000000 -0.000000 1.000000
-0.250000 1.000000 0.000000 0.000000 -0.000000 1.000000
-0.750000 0.750000 0.000000 0.000000 -0.000000 1.000000
-1.000000 0.500000 0.000000 0.000000 -0.000000 1.000000
-1.000000 0.250000 0.000000 0.000000 -0.000000 1.000000
-0.750000 0.500000 0.000000 0.000000 -0.000000 1.000000
0.500000 0.500000 0.000000 0.000000 0.000000 1.000000
0.750000 0.500000 0.000000 0.000000 0.000000 1.000000
0.750000 0.750000 0.000000 0.000000 0.000000 1.000000
0.500000 0.250000 0.000000 0.000000 -0.000000 1.000000
0.500000 0.000000 0.000000 0.000000 0.000000 1.000000
0.750000 0.000000 0.000000 0.000000 0.000000 1.000000
0.750000 0.250000 0.000000 0.000000 0.000000 1.000000
0.500000 -0.250000 0.000000 0.000000 -0.000000 1.000000
0.250000 -0.250000 0.000000 0.000000 -0.000000 1.000000
0.000000 -0.500000 0.000000 0.000000 -0.000000 1.000000
0.000000 -0.750000 0.000000 0.000000 -0.000000 1.000000
0.250000 -0.500000 0.000000 0.000000 -0.000000 1.000000
0.500000 -0.500000 0.000000 0.000000 0.000000 1.000000
0.750000 -0.500000 0.000000 0.000000 0.000000 1.000000
0.750000 -0.250000 0.000000 0.000000 0.000000 1.000000
0.500000 -0.750000 0.000000 0.000000 -0.000000 1.000000
0.500000 -1.000000 0.000000 0.000000 0.000000 1.000000
0.750000 -1.000000 0.000000 0.000000 0.000000 1.000000
0.750000 -0.750000 0.000000 0.000000 0.000000 1.000000
0.500000 1.000000 0.000000 0.000000 -0.000000 1.000000
0.500000 0.750000 0.000000 0.000000 -0.000000 1.000000
0.750000 1.000000 0.000000 0.000000 -0.000000 1.000000
0.250000 0.750000 0.000000 0.000000 -0.000000 1.000000
0.000000 0.500000 0.000000 0.000000 -0.000000 1.000000
0.000000 0.250000 0.000000 0.000000 -0.000000 1.000000
0.250000 0.500000 0.000000 0.000000 -0.000000 1.000000
-0.250000 0.250000 0.000000 0.000000 -0.000000 1.000000
-0.250000 0.500000 0.000000 0.000000 0.000000 1.000000
-0.500000 0.500000 0.000000 0.000000 -0.000000 1.000000
-0.750000 0.250000 0.000000 0.000000 -0.000000 1.000000
-0.500000 0.250000 0.000000 0.000000 -0.000000 1.000000
-0.500000 0.000000 0.000000 0.000000 -0.000000 1.000000
-0.500000 -0.250000 0.000000 0.000000 -0.000000 1.000000
-0.250000 0.000000 0.000000 0.000000 -0.000000 1.000000
-0.750000 -0.250000 0.000000 0.000000 -0.000000 1.000000
-1.000000 -0.500000 0.000000 0.000000 -0.000000 1.000000
-1.000000 -0.750000 0.000000 0.000000 -0.000000 1.000000
-0.750000 -0.500000 0.000000 0.000000 -0.000000 1.000000
1.000000 0.750000 0.000000 0.000000 0.000000 1.000000
1.000000 1.000000 0.000000 0.000000 0.000000 1.000000
1.000000 0.500000 0.000000 0.000000 0.000000 1.000000
1.000000 0.250000 0.000000 0.000000 0.000000 1.000000
1.000000 0.000000 0.000000 0.000000 0.000000 1.000000
1.000000 -0.250000 0.000000 0.000000 0.000000 1.000000
1.000000 -0.500000 0.000000 0.000000 0.000000 1.000000
1.000000 -0.750000 0.000000 0.000000 0.000000 1.000000
1.000000 -1.000000 0.000000 0.000000 0.000000 1.000000
3 0 1 2
3 3 4 5
3 6 7 8
3 6 9 7
3 10 11 12
3 13 14 15
3 13 16 14
3 17 18 19
3 20 21 22
3 20 23 21
3 24 25 26
3 27 28 29
3 27 30 28
3 31 32 33
3 34 35 36
3 34 37 35
3 38 39 40
3 38 41 39
3 38 42 41
3 43 44 45
3 46 47 48
3 46 49 47
3 50 51 52
3 53 54 55
3 53 56 54
3 57 58 59
3 57 60 58
3 57 61 60
3 62 63 64
3 65 66 67
3 65 68 66
3 69 70 71
3 2 23 20
3 2 1 23
3 1 24 23
3 5 30 27
3 5 4 30
3 4 31 30
3 8 37 34
3 8 7 37
3 7 38 37
3 7 42 38
3 7 9 42
3 9 43 42
3 12 49 46
3 12 11 49
3 11 50 49
3 15 56 53
3 15 14 56
3 14 57 56
3 14 61 57
3 14 16 61
3 16 62 61
3 19 68 65
3 19 18 68
3 18 69 68
3 22 9 6
3 22 21 9
3 21 43 9
3 21 26 43
3 21 23 26
3 23 24 26
3 26 44 43
3 26 25 44
3 25 10 44
3 29 16 13
3 29 28 16
3 28 62 16
3 28 33 62
3 28 30 33
3 30 31 33
3 33 63 62
3 33 32 63
3 32 17 63
3 36 72 73
3 36 35 72
3 35 74 72
3 35 40 74
3 35 37 40
3 37 38 40
3 40 75 74
3 40 39 75
3 39 76 75
3 39 48 76
3 39 41 48
3 41 46 48
3 41 45 46
3 41 42 45
3 42 43 45
3 45 12 46
3 45 44 12
3 44 10 12
3 48 77 76
3 48 47 77
3 47 78 77
3 47 52 78
3 47 49 52
3 49 50 52
3 52 79 78
3 52 51 79
3 51 80 79
3 55 36 73
3 55 54 36
3 54 34 36
3 54 59 34
3 54 56 59
3 56 57 59
3 59 8 34
3 59 58 8
3 58 6 8
3 58 67 6
3 58 60 67
3 60 65 67
3 60 64 65
3 60 61 64
3 61 62 64
3 64 19 65
3 64 63 19
3 63 17 19
3 67 22 6
3 67 66 22
3 66 20 22
3 66 71 20
3 66 68 71
3 68 69 71
3 71 2 20
3 71 70 2
3 70 0 2
